<svg height="512" viewBox="0 0 512 512" width="512" xmlns="http://www.w3.org/2000/svg"><g><g><g><path d="m64 456v40h432v-368h-432v96" fill="#ffda44"/><path d="m400 128h96v368h-96z" fill="#ff9811"/></g><path d="m16 240v216h176v-216-16l-22.004 16-22.003-16-22.001 16-21.999-16-22 16-22-16-21.997 16-21.996-16z" fill="#a0815c"/></g><g><path d="m496 120h-64v-24a87.951 87.951 0 0 0 -148-64.31 87.951 87.951 0 0 0 -148 64.31v24h-72a8 8 0 0 0 -8 8v89.09a7.564 7.564 0 0 0 -.71.44l-17.29 12.58-17.29-12.58a8 8 0 0 0 -12.71 6.47v232a8 8 0 0 0 8 8h40v32a8 8 0 0 0 8 8h432a8 8 0 0 0 8-8v-368a8 8 0 0 0 -8-8zm-200-24v24h-24v-24a71.611 71.611 0 0 1 12-39.74 71.611 71.611 0 0 1 12 39.74zm-144 0a71.95 71.95 0 0 1 121.33-52.38 87.583 87.583 0 0 0 -17.33 52.38v24h-104zm-128 352v-208.29l9.29 6.76a8 8 0 0 0 9.41 0l17.29-12.58 17.3 12.58a8 8 0 0 0 9.41 0l17.29-12.58 17.3 12.58a8 8 0 0 0 9.41 0l17.29-12.58 17.3 12.58a8 8 0 0 0 9.41 0l9.3-6.76v208.29zm368 40h-320v-24h120a8 8 0 0 0 8-8v-232a8 8 0 0 0 -12.71-6.47l-17.29 12.58-17.3-12.58a8 8 0 0 0 -9.41 0l-17.3 12.58-17.29-12.58a8 8 0 0 0 -9.41 0l-17.3 12.58-9.99-7.27v-86.84h64v64a8 8 0 0 0 16 0v-64h144v64a8 8 0 0 0 16 0v-64h80zm-80-368v-24a87.583 87.583 0 0 0 -17.33-52.38 71.95 71.95 0 0 1 121.33 52.38v24zm176 368h-80v-352h80z"/><path d="m448 424a8 8 0 0 0 8-8v-264a8 8 0 0 0 -16 0v264a8 8 0 0 0 8 8z"/><path d="m443.562 441.344-24 16a8 8 0 0 0 8.875 13.312l19.563-13.041 19.562 13.041a8 8 0 1 0 8.875-13.312l-24-16a8 8 0 0 0 -8.875 0z"/><path d="m48 264h-8a8 8 0 0 0 0 16h8a8 8 0 0 0 0-16z"/><path d="m72 280h96a8 8 0 0 0 0-16h-96a8 8 0 0 0 0 16z"/><path d="m48 288h-8a8 8 0 0 0 0 16h8a8 8 0 0 0 0-16z"/><path d="m72 304h96a8 8 0 0 0 0-16h-96a8 8 0 0 0 0 16z"/><path d="m48 312h-8a8 8 0 0 0 0 16h8a8 8 0 0 0 0-16z"/><path d="m72 328h96a8 8 0 0 0 0-16h-96a8 8 0 0 0 0 16z"/><path d="m48 336h-8a8 8 0 0 0 0 16h8a8 8 0 0 0 0-16z"/><path d="m72 352h96a8 8 0 0 0 0-16h-96a8 8 0 0 0 0 16z"/><path d="m48 360h-8a8 8 0 0 0 0 16h8a8 8 0 0 0 0-16z"/><path d="m72 376h96a8 8 0 0 0 0-16h-96a8 8 0 0 0 0 16z"/><path d="m48 384h-8a8 8 0 0 0 0 16h8a8 8 0 0 0 0-16z"/><path d="m72 400h96a8 8 0 0 0 0-16h-96a8 8 0 0 0 0 16z"/><path d="m48 408h-8a8 8 0 0 0 0 16h8a8 8 0 0 0 0-16z"/><path d="m72 424h96a8 8 0 0 0 0-16h-96a8 8 0 0 0 0 16z"/></g></g></svg>