<svg id="Capa_1" enable-background="new 0 0 512 512" height="512" viewBox="0 0 512 512" width="512" xmlns="http://www.w3.org/2000/svg"><g><g><g><path d="m477.58 79.934v348.828c0 11.046-8.954 20-20 20h-289.76c-11.046 0-20-8.954-20-20v-401.262c0-11.046 8.954-20 20-20h237.326c5.304 0 10.391 2.107 14.142 5.858l52.434 52.434c3.751 3.751 5.858 8.838 5.858 14.142z" fill="#f8f8ff"/></g><g><path d="m241.22 183.951h-6.716c-5.757 0-9.7-5.672-7.849-11.123 2.867-8.448 4.429-17.498 4.429-26.918 0-34.713-21.057-64.488-51.09-77.296-4.027-1.717-6.613-5.704-6.613-10.082v-31.032c0-11.046 8.954-20 20-20h-25.56c-11.046 0-20 8.954-20 20v401.263c0 11.046 8.954 20 20 20h113.4v-224.812c-.001-22.091-17.91-40-40.001-40z" fill="#ededf4"/></g><g><path d="m471.723 65.793-52.435-52.435c-1.708-1.708-3.701-3.055-5.858-4.037v52.33c0 5.523 4.477 10 10 10h52.329c-.982-2.157-2.329-4.151-4.036-5.858z" fill="#867c89"/></g><g><path d="m411.7 184.28h-42.96c-8.284 0-15-6.716-15-15v-42.96c0-8.284 6.716-15 15-15h42.96c8.284 0 15 6.716 15 15v42.96c0 8.284-6.716 15-15 15z" fill="#b3e59f"/></g><g><path d="m411.7 292.48h-42.96c-8.284 0-15-6.716-15-15v-42.96c0-8.284 6.716-15 15-15h42.96c8.284 0 15 6.716 15 15v42.96c0 8.284-6.716 15-15 15z" fill="#b3e59f"/></g><g><path d="m411.7 400.68h-42.96c-8.284 0-15-6.716-15-15v-42.96c0-8.284 6.716-15 15-15h42.96c8.284 0 15 6.716 15 15v42.96c0 8.284-6.716 15-15 15z" fill="#fc8d94"/></g><g><path d="m241.22 504.5h-186.8c-11.046 0-20-8.954-20-20v-260.549c0-11.046 8.954-20 20-20h186.8c11.046 0 20 8.954 20 20v260.549c0 11.046-8.954 20-20 20z" fill="#6f6571"/></g><g><path d="m86.322 203.951c15.299 16.004 36.842 25.989 60.731 25.989 23.888 0 45.432-9.985 60.731-25.989z" fill="#5d5360"/></g><g><path d="m54.34 484.5v-260.549c0-11.046 8.954-20 20-20h-19.92c-11.046 0-20 8.954-20 20v260.549c0 11.046 8.954 20 20 20h19.92c-11.046 0-20-8.954-20-20z" fill="#5d5360"/></g><g><g><g><path d="m71.861 272.322v-21.282c0-5.523 4.477-10 10-10h131.918c5.523 0 10 4.477 10 10v21.282c0 5.523-4.477 10-10 10h-131.918c-5.523 0-10-4.477-10-10z" fill="#9fcaf4"/></g></g></g><g><path d="m95.005 348.573h-13.144c-5.523 0-10-4.477-10-10v-13.144c0-5.523 4.477-10 10-10h13.144c5.523 0 10 4.477 10 10v13.144c0 5.523-4.478 10-10 10z" fill="#f8f8ff"/></g><g><path d="m213.779 348.573h-13.144c-5.523 0-10-4.477-10-10v-13.144c0-5.523 4.477-10 10-10h13.144c5.523 0 10 4.477 10 10v13.144c0 5.523-4.477 10-10 10z" fill="#f8f8ff"/></g><g><path d="m154.392 348.573h-13.144c-5.523 0-10-4.477-10-10v-13.144c0-5.523 4.477-10 10-10h13.144c5.523 0 10 4.477 10 10v13.144c0 5.523-4.477 10-10 10z" fill="#f8f8ff"/></g><g><path d="m95.005 407.992h-13.144c-5.523 0-10-4.477-10-10v-13.144c0-5.523 4.477-10 10-10h13.144c5.523 0 10 4.477 10 10v13.144c0 5.523-4.478 10-10 10z" fill="#f8f8ff"/></g><g><path d="m154.392 407.992h-13.144c-5.523 0-10-4.477-10-10v-13.144c0-5.523 4.477-10 10-10h13.144c5.523 0 10 4.477 10 10v13.144c0 5.523-4.477 10-10 10z" fill="#f8f8ff"/></g><g><path d="m95.005 467.411h-13.144c-5.523 0-10-4.477-10-10v-13.144c0-5.523 4.477-10 10-10h13.144c5.523 0 10 4.477 10 10v13.144c0 5.523-4.478 10-10 10z" fill="#f8f8ff"/></g><g><path d="m214.09 374.849h-13.766c-5.351 0-9.689 4.338-9.689 9.689v73.185c0 5.351 4.338 9.689 9.689 9.689h13.766c5.351 0 9.689-4.338 9.689-9.689v-73.185c0-5.352-4.338-9.689-9.689-9.689z" fill="#fc8d94"/></g><g><path d="m154.392 467.411h-13.144c-5.523 0-10-4.477-10-10v-13.144c0-5.523 4.477-10 10-10h13.144c5.523 0 10 4.477 10 10v13.144c0 5.523-4.477 10-10 10z" fill="#f8f8ff"/></g><g><path d="m147.053 211.16c-36.037 0-65.25-29.213-65.25-65.25 0-36.037 29.213-65.25 65.25-65.25 36.037 0 65.25 29.213 65.25 65.25 0 36.037-29.213 65.25-65.25 65.25z" fill="#ffd064"/></g><g><path d="m98.483 145.91c0-33.209 24.815-60.604 56.91-64.701-2.733-.349-5.512-.549-8.34-.549-36.037 0-65.25 29.214-65.25 65.25 0 36.036 29.213 65.25 65.25 65.25 2.828 0 5.607-.2 8.34-.549-32.095-4.098-56.91-31.492-56.91-64.701z" fill="#ffc269"/></g></g><g><path d="m477.58 188.07c-4.142 0-7.5 3.358-7.5 7.5v233.193c0 6.893-5.607 12.5-12.5 12.5h-188.86v-69.563h36.56c4.142 0 7.5-3.358 7.5-7.5s-3.358-7.5-7.5-7.5h-36.56v-93.2h36.56c4.142 0 7.5-3.358 7.5-7.5s-3.358-7.5-7.5-7.5h-36.56v-24.549c0-15.164-12.336-27.5-27.5-27.5h-25.917c-4.142 0-7.5 3.358-7.5 7.5s3.358 7.5 7.5 7.5h25.917c6.893 0 12.5 5.607 12.5 12.5v260.549c0 6.893-5.607 12.5-12.5 12.5h-186.8c-6.893 0-12.5-5.607-12.5-12.5v-260.549c0-6.893 5.607-12.5 12.5-12.5h23.62c4.142 0 7.5-3.358 7.5-7.5s-3.358-7.5-7.5-7.5h-23.62c-15.164 0-27.5 12.336-27.5 27.5v260.549c0 15.164 12.336 27.5 27.5 27.5h186.8c15.164 0 27.5-12.336 27.5-27.5v-28.237h188.86c15.164 0 27.5-12.336 27.5-27.5v-233.193c0-4.142-3.358-7.5-7.5-7.5z"/><path d="m477.025 60.489-52.433-52.434c-5.194-5.194-12.1-8.055-19.446-8.055h-237.326c-15.164 0-27.5 12.336-27.5 27.5v45.983c-36.968 3.41-66.017 34.584-66.017 72.427 0 40.114 32.636 72.75 72.75 72.75 36.931 0 67.501-27.668 72.124-63.36h86.103c4.142 0 7.5-3.358 7.5-7.5s-3.358-7.5-7.5-7.5h-85.694c-1.063-14.1-6.127-27.377-14.82-38.688-2.525-3.284-7.232-3.9-10.517-1.376-3.284 2.524-3.9 7.233-1.376 10.517 7.805 10.155 11.931 22.312 11.931 35.157 0 31.843-25.907 57.75-57.75 57.75s-57.75-25.907-57.75-57.75 25.907-57.75 57.75-57.75c8.953 0 17.531 1.991 25.496 5.917 3.716 1.833 8.212.304 10.043-3.411 1.832-3.715.304-8.212-3.411-10.043-7.563-3.728-15.56-6.071-23.861-7.002v-46.121c0-6.893 5.607-12.5 12.5-12.5h238.11v46.65c0 9.649 7.851 17.5 17.5 17.5h46.65v81.61c0 4.142 3.358 7.5 7.5 7.5s7.5-3.358 7.5-7.5v-80.826c-.001-7.345-2.862-14.251-8.056-19.445zm-71.095-46.233c-.037-.051-.051-.087 0-.084zm17.5 49.894c-1.378 0-2.5-1.122-2.5-2.5v-36.044l38.543 38.543h-36.043z"/><path d="m368.74 191.78h42.96c12.407 0 22.5-10.093 22.5-22.5v-42.96c0-12.407-10.093-22.5-22.5-22.5h-42.96c-12.407 0-22.5 10.093-22.5 22.5v42.96c0 12.407 10.093 22.5 22.5 22.5zm-7.5-65.46c0-4.136 3.364-7.5 7.5-7.5h42.96c4.136 0 7.5 3.364 7.5 7.5v42.96c0 4.136-3.364 7.5-7.5 7.5h-42.96c-4.136 0-7.5-3.364-7.5-7.5z"/><path d="m383.807 162.605c1.389 1.267 3.194 1.958 5.053 1.958.279 0 .559-.016.839-.047 2.148-.242 4.087-1.398 5.32-3.173l12.877-18.528c2.364-3.401 1.523-8.075-1.878-10.439-3.402-2.364-8.075-1.522-10.439 1.878l-7.991 11.497-3.832-3.495c-3.06-2.791-7.804-2.573-10.595.488s-2.573 7.804.488 10.595z"/><path d="m346.24 277.48c0 12.407 10.093 22.5 22.5 22.5h42.96c12.407 0 22.5-10.093 22.5-22.5v-42.96c0-12.407-10.093-22.5-22.5-22.5h-42.96c-12.407 0-22.5 10.093-22.5 22.5zm15-42.96c0-4.136 3.364-7.5 7.5-7.5h42.96c4.136 0 7.5 3.364 7.5 7.5v42.96c0 4.136-3.364 7.5-7.5 7.5h-42.96c-4.136 0-7.5-3.364-7.5-7.5z"/><path d="m383.807 270.805c1.389 1.267 3.194 1.958 5.053 1.958.279 0 .559-.016.839-.047 2.148-.242 4.087-1.398 5.32-3.173l12.877-18.527c2.364-3.401 1.523-8.075-1.878-10.439s-8.075-1.523-10.439 1.878l-7.991 11.497-3.832-3.495c-3.06-2.791-7.804-2.573-10.595.488s-2.573 7.804.488 10.595z"/><path d="m346.24 385.68c0 12.407 10.093 22.5 22.5 22.5h42.96c12.407 0 22.5-10.093 22.5-22.5v-42.96c0-12.407-10.093-22.5-22.5-22.5h-42.96c-12.407 0-22.5 10.093-22.5 22.5zm15-42.96c0-4.136 3.364-7.5 7.5-7.5h42.96c4.136 0 7.5 3.364 7.5 7.5v42.96c0 4.136-3.364 7.5-7.5 7.5h-42.96c-4.136 0-7.5-3.364-7.5-7.5z"/><path d="m375.679 380.236c1.436 1.302 3.239 1.944 5.036 1.944 2.043 0 4.078-.83 5.559-2.462l3.947-4.353 3.947 4.353c1.48 1.632 3.516 2.462 5.559 2.462 1.797 0 3.6-.642 5.036-1.944 3.068-2.783 3.3-7.526.518-10.594l-4.935-5.442 4.935-5.442c2.782-3.068 2.55-7.812-.518-10.594-3.069-2.783-7.812-2.55-10.594.518l-3.947 4.353-3.947-4.353c-2.783-3.068-7.525-3.3-10.594-.518-3.068 2.783-3.3 7.526-.518 10.594l4.935 5.442-4.935 5.442c-2.784 3.068-2.552 7.812.516 10.594z"/><path d="m231.279 251.04c0-9.649-7.851-17.5-17.5-17.5h-131.918c-9.649 0-17.5 7.851-17.5 17.5v21.282c0 9.649 7.851 17.5 17.5 17.5h131.918c9.649 0 17.5-7.851 17.5-17.5zm-15 21.282c0 1.378-1.122 2.5-2.5 2.5h-131.918c-1.378 0-2.5-1.122-2.5-2.5v-21.282c0-1.378 1.122-2.5 2.5-2.5h131.918c1.378 0 2.5 1.122 2.5 2.5z"/><path d="m200.324 367.349c-9.478 0-17.188 7.711-17.188 17.188v73.186c0 9.478 7.711 17.189 17.188 17.189h13.766c9.478 0 17.189-7.711 17.189-17.189v-73.186c0-9.478-7.711-17.188-17.189-17.188zm15.955 17.188v73.186c0 1.207-.982 2.189-2.189 2.189h-13.766c-1.207 0-2.188-.982-2.188-2.189v-73.186c0-1.207.982-2.188 2.188-2.188h13.766c1.207 0 2.189.982 2.189 2.188z"/><path d="m112.505 325.429c0-9.649-7.851-17.5-17.5-17.5h-13.144c-9.649 0-17.5 7.851-17.5 17.5v13.144c0 9.649 7.851 17.5 17.5 17.5h13.144c9.649 0 17.5-7.851 17.5-17.5zm-15 13.144c0 1.378-1.122 2.5-2.5 2.5h-13.144c-1.378 0-2.5-1.122-2.5-2.5v-13.144c0-1.378 1.122-2.5 2.5-2.5h13.144c1.378 0 2.5 1.122 2.5 2.5z"/><path d="m231.279 325.429c0-9.649-7.851-17.5-17.5-17.5h-13.144c-9.649 0-17.5 7.851-17.5 17.5v13.144c0 9.649 7.851 17.5 17.5 17.5h13.144c9.649 0 17.5-7.851 17.5-17.5zm-15 13.144c0 1.378-1.122 2.5-2.5 2.5h-13.144c-1.378 0-2.5-1.122-2.5-2.5v-13.144c0-1.378 1.122-2.5 2.5-2.5h13.144c1.378 0 2.5 1.122 2.5 2.5z"/><path d="m171.892 325.429c0-9.649-7.851-17.5-17.5-17.5h-13.144c-9.649 0-17.5 7.851-17.5 17.5v13.144c0 9.649 7.851 17.5 17.5 17.5h13.144c9.649 0 17.5-7.851 17.5-17.5zm-15 13.144c0 1.378-1.122 2.5-2.5 2.5h-13.144c-1.378 0-2.5-1.122-2.5-2.5v-13.144c0-1.378 1.122-2.5 2.5-2.5h13.144c1.378 0 2.5 1.122 2.5 2.5z"/><path d="m112.505 384.849c0-9.649-7.851-17.5-17.5-17.5h-13.144c-9.649 0-17.5 7.851-17.5 17.5v13.144c0 9.649 7.851 17.5 17.5 17.5h13.144c9.649 0 17.5-7.851 17.5-17.5zm-15 13.143c0 1.378-1.122 2.5-2.5 2.5h-13.144c-1.378 0-2.5-1.122-2.5-2.5v-13.144c0-1.378 1.122-2.5 2.5-2.5h13.144c1.378 0 2.5 1.122 2.5 2.5z"/><path d="m171.892 384.849c0-9.649-7.851-17.5-17.5-17.5h-13.144c-9.649 0-17.5 7.851-17.5 17.5v13.144c0 9.649 7.851 17.5 17.5 17.5h13.144c9.649 0 17.5-7.851 17.5-17.5zm-15 13.143c0 1.378-1.122 2.5-2.5 2.5h-13.144c-1.378 0-2.5-1.122-2.5-2.5v-13.144c0-1.378 1.122-2.5 2.5-2.5h13.144c1.378 0 2.5 1.122 2.5 2.5z"/><path d="m95.005 426.768h-13.144c-9.649 0-17.5 7.851-17.5 17.5v13.144c0 9.649 7.851 17.5 17.5 17.5h13.144c9.649 0 17.5-7.851 17.5-17.5v-13.144c0-9.65-7.851-17.5-17.5-17.5zm2.5 30.643c0 1.378-1.122 2.5-2.5 2.5h-13.144c-1.378 0-2.5-1.122-2.5-2.5v-13.144c0-1.378 1.122-2.5 2.5-2.5h13.144c1.378 0 2.5 1.122 2.5 2.5z"/><path d="m154.392 426.768h-13.144c-9.649 0-17.5 7.851-17.5 17.5v13.144c0 9.649 7.851 17.5 17.5 17.5h13.144c9.649 0 17.5-7.851 17.5-17.5v-13.144c0-9.65-7.851-17.5-17.5-17.5zm2.5 30.643c0 1.378-1.122 2.5-2.5 2.5h-13.144c-1.378 0-2.5-1.122-2.5-2.5v-13.144c0-1.378 1.122-2.5 2.5-2.5h13.144c1.378 0 2.5 1.122 2.5 2.5z"/><path d="m138.002 128.489h25.731c4.142 0 7.5-3.358 7.5-7.5s-3.358-7.5-7.5-7.5h-9.18v-7.809c0-4.142-3.358-7.5-7.5-7.5s-7.5 3.358-7.5 7.5v7.809h-1.551c-8.342 0-15.128 6.787-15.128 15.129v9.664c0 8.342 6.787 15.129 15.128 15.129h18.102c.071 0 .129.058.129.128v9.664c0 .071-.058.128-.129.128h-25.73c-4.142 0-7.5 3.358-7.5 7.5s3.358 7.5 7.5 7.5h9.18v7.809c0 4.142 3.358 7.5 7.5 7.5s7.5-3.358 7.5-7.5v-7.809h1.551c8.342 0 15.129-6.787 15.129-15.128v-9.664c0-8.342-6.787-15.128-15.129-15.128h-18.102c-.071 0-.128-.058-.128-.129v-9.664c-.001-.072.056-.129.127-.129z"/></g></g></svg>