<svg height="512" viewBox="0 0 512 512" width="512" xmlns="http://www.w3.org/2000/svg" xmlns:xlink="http://www.w3.org/1999/xlink"><linearGradient id="a" gradientUnits="userSpaceOnUse" x1="-19.553" x2="503" y1="491.553" y2="-31" data-name="New Gradient Swatch 1"><stop offset="0" stop-color="#003f8a"/><stop offset=".518" stop-color="#00d7df"/><stop offset="1" stop-color="#006df0"/></linearGradient><linearGradient id="b" x1="-47.553" x2="475" xlink:href="#a" y1="463.553" y2="-59"/><linearGradient id="c" x1="8.447" x2="531" xlink:href="#a" y1="519.553" y2="-3"/><linearGradient id="e" x1="36.447" x2="559" xlink:href="#a" y1="547.553" y2="25"/><linearGradient id="g" x1="22.447" x2="545" xlink:href="#a" y1="533.553" y2="11"/><linearGradient id="h" x1="-55.553" x2="467" xlink:href="#a" y1="455.553" y2="-67"/><linearGradient id="i" x1="12.447" x2="535" xlink:href="#a" y1="523.553" y2="1"/><linearGradient id="j" x1="-51.553" x2="471" xlink:href="#a" y1="459.553" y2="-63"/><linearGradient id="k" x1="-39.553" x2="483" xlink:href="#a" y1="471.553" y2="-51"/><linearGradient id="n" x1="24.447" x2="547" xlink:href="#a" y1="535.553" y2="13"/><linearGradient id="q" x1="78.447" x2="601" xlink:href="#a" y1="589.553" y2="67"/><linearGradient id="r" x1="80.447" x2="603" xlink:href="#a" y1="591.553" y2="69"/><linearGradient id="s" x1="92.447" x2="615" xlink:href="#a" y1="603.553" y2="81"/><linearGradient id="t" x1="92.402" x2="614.956" xlink:href="#a" y1="603.598" y2="81.044"/><linearGradient id="u" x1="134.447" x2="657" xlink:href="#a" y1="645.553" y2="123"/><g><path d="m152 312h-32a8 8 0 0 0 -8 8v32a8 8 0 0 0 8 8h32a8 8 0 0 0 8-8v-32a8 8 0 0 0 -8-8zm-8 32h-16v-16h16z" fill="url(#a)"/><path d="m96 312h-32a8 8 0 0 0 -8 8v32a8 8 0 0 0 8 8h32a8 8 0 0 0 8-8v-32a8 8 0 0 0 -8-8zm-8 32h-16v-16h16z" fill="url(#b)"/><path d="m152 368h-32a8 8 0 0 0 -8 8v32a8 8 0 0 0 8 8h32a8 8 0 0 0 8-8v-32a8 8 0 0 0 -8-8zm-8 32h-16v-16h16z" fill="url(#c)"/><path d="m96 368h-32a8 8 0 0 0 -8 8v32a8 8 0 0 0 8 8h32a8 8 0 0 0 8-8v-32a8 8 0 0 0 -8-8zm-8 32h-16v-16h16z" fill="url(#a)"/><path d="m152 424h-32a8 8 0 0 0 -8 8v32a8 8 0 0 0 8 8h32a8 8 0 0 0 8-8v-32a8 8 0 0 0 -8-8zm-8 32h-16v-16h16z" fill="url(#e)"/><path d="m96 424h-32a8 8 0 0 0 -8 8v32a8 8 0 0 0 8 8h32a8 8 0 0 0 8-8v-32a8 8 0 0 0 -8-8zm-8 32h-16v-16h16z" fill="url(#c)"/><path d="m208 312h-32a8 8 0 0 0 -8 8v88a8 8 0 0 0 8 8h32a8 8 0 0 0 8-8v-88a8 8 0 0 0 -8-8zm-8 88h-16v-72h16z" fill="url(#g)"/><path d="m208 232h-144a8 8 0 0 0 -8 8v48a8 8 0 0 0 8 8h144a8 8 0 0 0 8-8v-48a8 8 0 0 0 -8-8zm-8 48h-128v-32h128z" fill="url(#h)"/><path d="m477.66 58.34-48-48a8.008 8.008 0 0 0 -5.66-2.34h-272a8 8 0 0 0 -8 8v184h-84a28.031 28.031 0 0 0 -28 28v248a28.031 28.031 0 0 0 28 28h152a28.031 28.031 0 0 0 28-28v-36h232a8 8 0 0 0 8-8v-368a8.008 8.008 0 0 0 -2.34-5.66zm-45.66-23.03 20.69 20.69h-20.69zm-208 440.69a12.01 12.01 0 0 1 -12 12h-152a12.01 12.01 0 0 1 -12-12v-248a12.01 12.01 0 0 1 12-12h152a12.01 12.01 0 0 1 12 12zm240-52h-224v-196a28.031 28.031 0 0 0 -28-28h-52v-176h256v40a8 8 0 0 0 8 8h40z" fill="url(#i)"/><path d="m432 88h-240a8 8 0 0 0 0 16h240a8 8 0 0 0 0-16z" fill="url(#j)"/><path d="m432 112h-240a8 8 0 0 0 0 16h240a8 8 0 0 0 0-16z" fill="url(#k)"/><path d="m392 144a8 8 0 0 0 -8-8h-192a8 8 0 0 0 0 16h192a8 8 0 0 0 8-8z" fill="url(#k)"/><path d="m416 152a8 8 0 0 0 0-16h-8a8 8 0 0 0 0 16z" fill="url(#g)"/><path d="m432 200h-160a8 8 0 0 0 0 16h160a8 8 0 0 0 0-16z" fill="url(#n)"/><path d="m432 224h-160a8 8 0 0 0 0 16h160a8 8 0 0 0 0-16z" fill="url(#e)"/><path d="m272 264h112a8 8 0 0 0 0-16h-112a8 8 0 0 0 0 16z" fill="url(#e)"/><path d="m416 264a8 8 0 0 0 0-16h-8a8 8 0 0 0 0 16z" fill="url(#q)"/><path d="m432 312h-160a8 8 0 0 0 0 16h160a8 8 0 0 0 0-16z" fill="url(#r)"/><path d="m432 336h-160a8 8 0 0 0 0 16h160a8 8 0 0 0 0-16z" fill="url(#s)"/><path d="m384 360h-112a8 8 0 0 0 0 16h112a8 8 0 0 0 0-16z" fill="url(#t)"/><path d="m416 360h-8a8 8 0 0 0 0 16h8a8 8 0 0 0 0-16z" fill="url(#u)"/></g></svg>
