<svg xmlns="http://www.w3.org/2000/svg" version="1.1" xmlns:xlink="http://www.w3.org/1999/xlink" xmlns:svgjs="http://svgjs.com/svgjs" width="512" height="512" x="0" y="0" viewBox="0 0 512 512" style="enable-background:new 0 0 512 512" xml:space="preserve" class=""><g><g xmlns="http://www.w3.org/2000/svg"><path d="m512 256c0 141.385-114.615 256-256 256s-256-114.615-256-256 114.615-256 256-256 256 114.615 256 256z" fill="#51489a" data-original="#51489a"></path><path d="m461.317 256c0 113.394-91.924 205.317-205.317 205.317s-205.317-91.923-205.317-205.317 91.923-205.317 205.317-205.317 205.317 91.923 205.317 205.317z" fill="#5f55af" data-original="#5f55af" class=""></path><path d="m261 229v1c0 2.761-2.238 5-5 5-2.761 0-5-2.239-5-5v-1c0-2.761 2.239-5 5-5 2.762 0 5 2.239 5 5zm-5-51.75c-2.761 0-5 2.239-5 5v2.125c0 2.761 2.239 5 5 5 2.762 0 5-2.239 5-5v-2.125c0-2.761-2.238-5-5-5zm0 23.375c-2.761 0-5 2.239-5 5v2.125c0 2.761 2.239 5 5 5 2.762 0 5-2.239 5-5v-2.125c0-2.761-2.238-5-5-5zm0-45.625c-2.761 0-5 2.239-5 5v1c0 2.761 2.239 5 5 5 2.762 0 5-2.239 5-5v-1c0-2.761-2.238-5-5-5zm0 189c-2.761 0-5 2.239-5 5v1c0 2.761 2.239 5 5 5 2.762 0 5-2.239 5-5v-1c0-2.761-2.238-5-5-5zm0-23.375c-2.761 0-5 2.239-5 5v2.125c0 2.761 2.239 5 5 5 2.762 0 5-2.239 5-5v-2.125c0-2.761-2.238-5-5-5zm0-23.375c-2.761 0-5 2.239-5 5v2.125c0 2.761 2.239 5 5 5 2.762 0 5-2.239 5-5v-2.125c0-2.761-2.238-5-5-5zm0-22.25c-2.761 0-5 2.239-5 5v1c0 2.761 2.239 5 5 5 2.762 0 5-2.239 5-5v-1c0-2.761-2.238-5-5-5zm-166 70c-2.761 0-5 2.239-5 5v1c0 2.761 2.239 5 5 5s5-2.239 5-5v-1c0-2.761-2.239-5-5-5zm0-84.857c-2.761 0-5 2.239-5 5v1.928c0 2.761 2.239 5 5 5s5-2.239 5-5v-1.928c0-2.761-2.239-5-5-5zm0 21.214c-2.761 0-5 2.239-5 5v1.928c0 2.761 2.239 5 5 5s5-2.239 5-5v-1.928c0-2.761-2.239-5-5-5zm0-42.428c-2.761 0-5 2.239-5 5v1.929c0 2.761 2.239 5 5 5s5-2.239 5-5v-1.929c0-2.762-2.239-5-5-5zm0-42.429c-2.761 0-5 2.239-5 5v1.929c0 2.761 2.239 5 5 5s5-2.239 5-5v-1.929c0-2.761-2.239-5-5-5zm0 21.214c-2.761 0-5 2.239-5 5v1.929c0 2.761 2.239 5 5 5s5-2.239 5-5v-1.929c0-2.761-2.239-5-5-5zm0-42.428c-2.761 0-5 2.239-5 5v1.929c0 2.761 2.239 5 5 5s5-2.239 5-5v-1.929c0-2.762-2.239-5-5-5zm0 148.5c-2.761 0-5 2.239-5 5v1.929c0 2.761 2.239 5 5 5s5-2.239 5-5v-1.929c0-2.762-2.239-5-5-5zm0-21.215c-2.761 0-5 2.239-5 5v1.929c0 2.761 2.239 5 5 5s5-2.239 5-5v-1.929c0-2.761-2.239-5-5-5zm0-147.571c-2.761 0-5 2.239-5 5v1c0 2.761 2.239 5 5 5s5-2.239 5-5v-1c0-2.761-2.239-5-5-5zm327.511 190c-2.762 0-5 2.239-5 5v1c0 2.761 2.238 5 5 5s5-2.239 5-5v-1c0-2.761-2.239-5-5-5zm0-169.714c-2.762 0-5 2.239-5 5v1.929c0 2.761 2.238 5 5 5s5-2.239 5-5v-1.929c0-2.762-2.239-5-5-5zm0 63.643c-2.762 0-5 2.239-5 5v1.929c0 2.761 2.238 5 5 5s5-2.239 5-5v-1.929c0-2.762-2.239-5-5-5zm0-42.429c-2.762 0-5 2.239-5 5v1.929c0 2.761 2.238 5 5 5s5-2.239 5-5v-1.929c0-2.761-2.239-5-5-5zm0 63.643c-2.762 0-5 2.239-5 5v1.928c0 2.761 2.238 5 5 5s5-2.239 5-5v-1.928c0-2.761-2.239-5-5-5zm0-42.429c-2.762 0-5 2.239-5 5v1.929c0 2.761 2.238 5 5 5s5-2.239 5-5v-1.929c0-2.761-2.239-5-5-5zm0 106.072c-2.762 0-5 2.239-5 5v1.929c0 2.761 2.238 5 5 5s5-2.239 5-5v-1.929c0-2.762-2.239-5-5-5zm0-21.215c-2.762 0-5 2.239-5 5v1.929c0 2.761 2.238 5 5 5s5-2.239 5-5v-1.929c0-2.761-2.239-5-5-5zm0-21.214c-2.762 0-5 2.239-5 5v1.928c0 2.761 2.238 5 5 5s5-2.239 5-5v-1.928c0-2.761-2.239-5-5-5zm0-126.357c-2.762 0-5 2.239-5 5v1c0 2.761 2.238 5 5 5s5-2.239 5-5v-1c0-2.761-2.239-5-5-5zm-285.511-20h-1c-2.761 0-5 2.239-5 5s2.239 5 5 5h1c2.761 0 5-2.239 5-5s-2.239-5-5-5zm45.466 0h-2.066c-2.761 0-5 2.239-5 5s2.239 5 5 5h2.066c2.761 0 5-2.239 5-5s-2.238-5-5-5zm22.734 0h-2.066c-2.761 0-5 2.239-5 5s2.239 5 5 5h2.066c2.761 0 5-2.239 5-5s-2.239-5-5-5zm-45.467 0h-2.067c-2.761 0-5 2.239-5 5s2.239 5 5 5h2.067c2.761 0 5-2.239 5-5s-2.238-5-5-5zm204.6 0h-2.066c-2.762 0-5 2.239-5 5s2.238 5 5 5h2.066c2.762 0 5-2.239 5-5s-2.238-5-5-5zm-113.666 0h-2.067c-2.761 0-5 2.239-5 5s2.239 5 5 5h2.067c2.761 0 5-2.239 5-5s-2.239-5-5-5zm45.466 0h-2.066c-2.762 0-5 2.239-5 5s2.238 5 5 5h2.066c2.762 0 5-2.239 5-5s-2.238-5-5-5zm-22.734 0h-2.066c-2.762 0-5 2.239-5 5s2.238 5 5 5h2.066c2.762 0 5-2.239 5-5s-2.238-5-5-5zm45.467 0h-2.066c-2.762 0-5 2.239-5 5s2.238 5 5 5h2.066c2.762 0 5-2.239 5-5s-2.238-5-5-5zm22.734 0h-2.066c-2.762 0-5 2.239-5 5s2.238 5 5 5h2.066c2.762 0 5-2.239 5-5s-2.239-5-5-5zm-113.667 0h-2.066c-2.761 0-5 2.239-5 5s2.239 5 5 5h2.066c2.761 0 5-2.239 5-5s-2.239-5-5-5zm158.067 0h-1c-2.762 0-5 2.239-5 5s2.238 5 5 5h1c2.762 0 5-2.239 5-5s-2.238-5-5-5zm-249 230h-1c-2.761 0-5 2.239-5 5s2.239 5 5 5h1c2.761 0 5-2.239 5-5s-2.239-5-5-5zm204.6 0h-2.066c-2.762 0-5 2.239-5 5s2.238 5 5 5h2.066c2.762 0 5-2.239 5-5s-2.239-5-5-5zm-90.933 0h-2.067c-2.761 0-5 2.239-5 5s2.239 5 5 5h2.067c2.761 0 5-2.239 5-5s-2.239-5-5-5zm-68.201 0h-2.066c-2.761 0-5 2.239-5 5s2.239 5 5 5h2.066c2.761 0 5-2.239 5-5s-2.238-5-5-5zm22.734 0h-2.066c-2.761 0-5 2.239-5 5s2.239 5 5 5h2.066c2.761 0 5-2.239 5-5s-2.239-5-5-5zm159.133 0h-2.066c-2.762 0-5 2.239-5 5s2.238 5 5 5h2.066c2.762 0 5-2.239 5-5s-2.238-5-5-5zm-136.4 0h-2.066c-2.761 0-5 2.239-5 5s2.239 5 5 5h2.066c2.761 0 5-2.239 5-5s-2.239-5-5-5zm45.466 0h-2.066c-2.762 0-5 2.239-5 5s2.238 5 5 5h2.066c2.762 0 5-2.239 5-5s-2.238-5-5-5zm22.734 0h-2.066c-2.762 0-5 2.239-5 5s2.238 5 5 5h2.066c2.762 0 5-2.239 5-5s-2.238-5-5-5zm22.733 0h-2.066c-2.762 0-5 2.239-5 5s2.238 5 5 5h2.066c2.762 0 5-2.239 5-5s-2.238-5-5-5zm-159.133 0h-2.067c-2.761 0-5 2.239-5 5s2.239 5 5 5h2.067c2.761 0 5-2.239 5-5s-2.238-5-5-5zm226.267 0h-1c-2.762 0-5 2.239-5 5s2.238 5 5 5h1c2.762 0 5-2.239 5-5s-2.238-5-5-5z" fill="#6990d7" data-original="#6990d7"></path><path d="m270 256c0 7.732-6.268 14-14 14s-14-6.268-14-14 6.268-14 14-14 14 6.268 14 14z" fill="#76b6fa" data-original="#76b6fa"></path><path d="m270 256c0 1.508-.238 2.96-.679 4.321-1.361.441-2.813.679-4.321.679-7.732 0-14-6.268-14-14 0-1.508.238-2.96.679-4.321 1.361-.441 2.813-.679 4.321-.679 7.732 0 14 6.268 14 14z" fill="#a7d0fc" data-original="#a7d0fc"></path><path d="m285.81 92.437h-78.801c-2.761 0-5-2.239-5-5s2.239-5 5-5h78.801l-9.185-9.185c-1.953-1.953-1.953-5.119 0-7.071 1.951-1.952 5.119-1.952 7.07 0l17.721 17.721c.938.938 1.465 2.209 1.465 3.536s-.526 2.598-1.465 3.536l-17.721 17.72c-.976.976-2.256 1.464-3.535 1.464s-2.56-.488-3.535-1.464c-1.953-1.953-1.953-5.119 0-7.071zm25.911 335.095h-78.801l9.185-9.185c1.953-1.953 1.953-5.119 0-7.071s-5.118-1.952-7.071 0l-17.72 17.72c-1.953 1.953-1.953 5.119 0 7.071l17.72 17.721c.977.976 2.256 1.464 3.536 1.464 1.279 0 2.559-.488 3.536-1.464 1.953-1.953 1.953-5.119 0-7.071l-9.185-9.185h78.801c2.762 0 5-2.239 5-5s-2.24-5-5.001-5z" fill="#ffffff" data-original="#ffffff"></path><path d="m156 280h-30c-2.761 0-5-2.239-5-5 0-2.761 2.239-5 5-5h30c2.761 0 5 2.239 5 5 0 2.761-2.239 5-5 5zm198-50h30c2.761 0 5-2.239 5-5 0-2.761-2.239-5-5-5h-30c-2.761 0-5 2.239-5 5 0 2.761 2.239 5 5 5z" fill="#76b6fa" data-original="#76b6fa"></path><path d="m175 300h-50c-2.761 0-5-2.239-5-5 0-2.761 2.239-5 5-5h50c2.761 0 5 2.239 5 5 0 2.761-2.239 5-5 5zm160-50h50c2.761 0 5-2.239 5-5 0-2.761-2.239-5-5-5h-50c-2.761 0-5 2.239-5 5 0 2.761 2.239 5 5 5z" fill="#3493f8" data-original="#3493f8"></path><path d="m181 255c0 2.761-2.239 5-5 5h-50c-2.761 0-5-2.239-5-5s2.239-5 5-5h50c2.761 0 5 2.239 5 5zm203-55h-50c-2.761 0-5 2.239-5 5s2.239 5 5 5h50c2.761 0 5-2.239 5-5s-2.239-5-5-5z" fill="#a7d0fc" data-original="#a7d0fc"></path><path d="m512 362.089c0 52.185-42.304 94.489-94.489 94.489s-94.489-42.304-94.489-94.489 42.304-94.489 94.489-94.489 94.489 42.304 94.489 94.489z" fill="#ffc14f" data-original="#ffc14f"></path><path d="m512 362.089c0 15.16-3.571 29.486-9.916 42.184-12.698 6.346-27.024 9.916-42.184 9.916-52.185 0-94.489-42.304-94.489-94.489 0-15.16 3.571-29.486 9.916-42.184 12.698-6.346 27.024-9.916 42.184-9.916 52.185 0 94.489 42.304 94.489 94.489z" fill="#fff04a" data-original="#fff04a" class=""></path><path d="m472.429 404.158-7.332 7.332c-8.72 8.72-22.918 10.793-37.675 5.428-13.833-5.029-27.798-13.848-40.067-26.117-10.479-10.479-18.441-22.195-23.674-34.008-7.023-15.854-5.399-31.67 4.05-41.119l8.107-8.107c2.164-2.164 6.321-1.516 9.285 1.447l24.148 24.148c2.964 2.964 3.612 7.121 1.447 9.285l-16.333 16.333c-1.975 1.975-1.635 5.657.805 8.584 2.321 2.784 4.805 5.507 7.449 8.152 3.342 3.342 6.809 6.427 10.365 9.25 2.908 2.308 6.472 2.583 8.4.655l16.145-16.145c2.164-2.164 6.321-1.516 9.285 1.447l24.148 24.148c2.963 2.965 3.611 7.122 1.447 9.287z" fill="#c50048" data-original="#c50048"></path><path d="m394.384 358.78c-1.975 1.975-1.635 5.657.805 8.585 2.321 2.784 4.805 5.507 7.449 8.152.043.043.086.085.128.128 4.246 4.234 4.29 11.092.05 15.332-4.201 4.201-11.023 4.241-15.235.051-.076-.076-.152-.151-.228-.227-10.479-10.479-18.441-22.195-23.674-34.008-7.023-15.854-5.399-31.67 4.05-41.119l8.107-8.107c2.164-2.164 6.321-1.516 9.285 1.447l24.148 24.148c2.964 2.964 3.612 7.121 1.447 9.285z" fill="#f44545" data-original="#f44545"></path><path d="m472.429 404.158c-4.329 4.329-11.347 4.329-15.676 0l-19.204-19.204c-4.329-4.329-4.329-11.347 0-15.676s11.347-4.329 15.676 0l19.204 19.205c4.329 4.328 4.329 11.346 0 15.675zm-80.916-96.592c-4.329-4.329-11.347-4.329-15.676 0s-4.329 11.347 0 15.676l19.204 19.205c4.329 4.329 11.347 4.329 15.676 0s4.329-11.347 0-15.676z" fill="#fc7979" data-original="#fc7979"></path><path d="m394.025 322.727c.953.953.953 2.497 0 3.45s-2.497.953-3.45 0l-1.15-1.15c-.953-.953-.953-2.497 0-3.45s2.497-.953 3.45 0zm-7.935-8.165c-.953-.953-2.497-.953-3.45 0s-.953 2.497 0 3.45l1.15 1.15c.953.953 2.497.953 3.45 0 .953-.953.953-2.497 0-3.45zm13.799 13.799c-.953-.953-2.497-.953-3.45 0-.953.952-.953 2.497 0 3.449l1.15 1.15c.953.953 2.497.953 3.45 0 .953-.952.953-2.497 0-3.449zm55.08 55.31c-.953-.953-2.497-.953-3.45 0-.953.952-.953 2.497 0 3.45l1.15 1.15c.953.952 2.497.952 3.45 0 .953-.953.953-2.497 0-3.45zm-6.784-7.014c-.953-.953-2.497-.953-3.45 0s-.953 2.497 0 3.45l1.15 1.15c.953.953 2.497.953 3.45 0s.953-2.497 0-3.45zm14.948 14.948-1.15-1.15c-.953-.953-2.497-.953-3.45 0s-.953 2.497 0 3.45l1.15 1.15c.953.953 2.497.953 3.45 0 .953-.952.953-2.497 0-3.45z" fill="#c50048" data-original="#c50048"></path><path d="m188.979 140.679c0 52.185-42.304 94.489-94.489 94.489s-94.49-42.304-94.49-94.489 42.304-94.489 94.489-94.489 94.49 42.304 94.49 94.489z" fill="#3493f8" data-original="#3493f8"></path><path d="m188.979 140.679c0 17.16-4.575 33.252-12.571 47.123-13.87 7.996-29.962 12.571-47.123 12.571-52.185 0-94.489-42.304-94.489-94.489 0-17.16 4.575-33.252 12.571-47.123 13.87-7.996 29.962-12.571 47.123-12.571 52.184-.001 94.489 42.304 94.489 94.489z" fill="#55a4f9" data-original="#55a4f9"></path><path d="m156.662 117.399v55.577c0 7.135-124.346 7.135-124.346 0v-55.577c0-7.135 124.346-7.135 124.346 0z" fill="#fff04a" data-original="#fff04a" class=""></path><path d="m156.662 172.079v.897c0 7.135-5.784 12.919-12.919 12.919h-98.508c-7.135 0-12.919-5.784-12.919-12.919v-.897l58.352-42.808c2.274-1.668 5.368-1.668 7.642 0z" fill="#ffc14f" data-original="#ffc14f"></path><path d="m156.662 108.381v10.157l-58.352 42.809c-2.274 1.668-5.368 1.668-7.642 0l-58.352-42.808v-10.157c0-7.135 5.784-12.919 12.919-12.919h98.508c7.135-.001 12.919 5.783 12.919 12.918z" fill="#fffac1" data-original="#fffac1"></path><path d="m188.979 417.511c0 52.185-42.304 94.489-94.489 94.489s-94.49-42.304-94.49-94.489 42.304-94.489 94.489-94.489 94.49 42.304 94.49 94.489z" fill="#55a4f9" data-original="#55a4f9"></path><path d="m19.646 417.511c0-41.935 34.488-75.814 76.648-74.822 40.056.943 72.572 33.876 73.034 73.941.294 25.516-12.183 48.134-31.437 61.862-1.696 1.209-3.945 1.283-5.744.234-11.062-6.453-23.928-10.15-37.657-10.15-13.731 0-26.599 3.698-37.662 10.152-1.8 1.05-4.048.97-5.744-.24-19.03-13.57-31.438-35.824-31.438-60.977z" fill="#c8e2fd" data-original="#c8e2fd"></path><path d="m74.512 480.816c0 4.531-4.617 7.548-8.799 5.805-5.353-2.231-10.392-5.067-15.03-8.421v-21.999c0-10.585 8.581-19.165 19.165-19.165h23.83c-10.585 0-19.165 8.581-19.165 19.165v24.615z" fill="#2e5aac" data-original="#2e5aac"></path><path d="m138.296 456.201v22c-12.315 8.905-27.448 14.153-43.807 14.153-10.209 0-19.941-2.044-28.809-5.745v-30.407c0-10.585 8.581-19.165 19.166-19.165h34.285c10.584-.001 19.165 8.579 19.165 19.164z" fill="#0a66ea" data-original="#0a66ea"></path><path d="m131.451 402.812v2.738c0 3.78-3.064 6.845-6.845 6.845-.676 0-1.329-.098-1.945-.281-3.355 8.853-10.762 15.712-19.958 18.312v9.348c0 4.536-3.677 8.214-8.214 8.214s-8.214-3.677-8.214-8.214v-9.348c-9.196-2.601-16.603-9.46-19.958-18.312-.617.182-1.269.281-1.945.281-3.78 0-6.845-3.064-6.845-6.845v-2.738c0-3.78 3.064-6.845 6.845-6.845v-5.476c0-16.633 13.484-30.117 30.117-30.117s30.117 13.484 30.117 30.117v5.476c3.781 0 6.845 3.064 6.845 6.845z" fill="#e3a76f" data-original="#e3a76f"></path><path d="m124.606 390.491v10.951c0 13.556-8.957 25.02-21.274 28.798-12.318-3.778-21.274-15.242-21.274-28.798v-10.951c0-13.556 8.956-25.02 21.274-28.798 12.318 3.779 21.274 15.242 21.274 28.798z" fill="#f2bb88" data-original="#f2bb88"></path><path d="m112.3 399.888c0 2.071-1.679 3.75-3.75 3.75h-3.75c-2.071 0-3.75-1.679-3.75-3.75s1.679-3.75 3.75-3.75h3.75c2.071 0 3.75 1.679 3.75 3.75zm-28.122-3.75h-3.75c-2.071 0-3.75 1.679-3.75 3.75s1.679 3.75 3.75 3.75h3.75c2.071 0 3.75-1.679 3.75-3.75s-1.679-3.75-3.75-3.75zm14.436 15.748h-8.249c-.828 0-1.5.672-1.5 1.5v.375c0 3.106 2.518 5.624 5.624 5.624s5.624-2.518 5.624-5.624v-.375c.001-.828-.671-1.5-1.499-1.5z" fill="#d6995c" data-original="#d6995c"></path><path d="m129.402 389.619v1.412c0 2.652-2.093 4.921-4.746 4.936-.017 0-.033 0-.05 0-6.15 0-11.567-6.197-14.736-15.601-4.64 2.281-9.861 3.562-15.381 3.562-5.52 0-10.74-1.282-15.381-3.562-3.169 9.404-8.586 15.601-14.736 15.601-.017 0-.033 0-.05 0-2.652-.014-4.746-2.283-4.746-4.936v-1.412c0-19.282 15.631-34.913 34.913-34.913 19.282.001 34.913 15.632 34.913 34.913z" fill="#0a4499" data-original="#0a4499"></path><path d="m124.606 395.967c-6.15 0-11.567-6.198-14.736-15.602-4.64 2.281-9.861 3.563-15.381 3.563-3.932 0-7.713-.651-11.24-1.85 2.824-9.725 10.418-17.42 20.083-20.385 3.824-.852 7.002-1.383 9.668-1.681 9.851 6.172 16.402 17.124 16.402 29.606v1.412c0 2.652-2.093 4.921-4.746 4.936-.016.001-.033.001-.05.001z" fill="#0956c6" data-original="#0956c6"></path><path d="m512 94.489c0 52.185-42.304 94.489-94.489 94.489s-94.489-42.304-94.489-94.489 42.304-94.489 94.489-94.489 94.489 42.304 94.489 94.489z" fill="#86befb" data-original="#86befb"></path><path d="m492.354 94.489c0 41.335-33.508 74.843-74.843 74.843s-74.843-33.508-74.843-74.843 33.508-74.843 74.843-74.843 74.843 33.509 74.843 74.843z" fill="#c8e2fd" data-original="#c8e2fd"></path><path d="m454 93.5c0 6.904-5.596 12.5-12.5 12.5s-12.5-5.596-12.5-12.5 5.596-12.5 12.5-12.5 12.5 5.596 12.5 12.5z" fill="#0a4499" data-original="#0a4499"></path><path d="m388.719 163.594c-5.347-2.231-10.381-5.064-15.015-8.415v-22c0-10.585 8.581-19.165 19.165-19.165h21.064c-10.585 0-19.165 8.58-19.165 19.165v26.411c0 3.115-3.174 5.203-6.049 4.004z" fill="#c50048" data-original="#c50048"></path><path d="m461.317 133.179v22c-12.315 8.905-27.448 14.153-43.807 14.153-10.209 0-19.941-2.044-28.809-5.746v-30.407c0-10.585 8.581-19.165 19.166-19.165h34.285c10.585 0 19.165 8.581 19.165 19.165z" fill="#f44545" data-original="#f44545"></path><path d="m434.266 114.952-11.766 13.727v40.488c-1.649.109-3.313.165-4.989.165-1.684 0-3.355-.056-5.011-.166v-40.513l-11.744-13.702c-1.668-1.946-.285-4.952 2.278-4.952h28.955c2.562.001 3.945 3.007 2.277 4.953z" fill="#c50048" data-original="#c50048"></path><path d="m454.473 79.79v2.738c0 3.78-3.065 6.845-6.845 6.845-.676 0-1.328-.099-1.945-.281-3.355 8.853-10.763 15.712-19.958 18.313v9.347c0 4.536-3.677 8.214-8.214 8.214s-8.214-3.677-8.214-8.214v-9.347c-9.196-2.601-16.603-9.46-19.958-18.313-.617.182-1.269.281-1.945.281-3.78 0-6.845-3.065-6.845-6.845v-2.738c0-3.78 3.064-6.845 6.845-6.845v-5.475c0-16.633 13.484-30.117 30.117-30.117 16.633 0 30.117 13.484 30.117 30.117v5.476c3.78-.001 6.845 3.064 6.845 6.844z" fill="#c38778" data-original="#c38778"></path><path d="m447.628 67.47v10.952c0 13.556-8.956 25.02-21.274 28.797-12.318-3.778-21.274-15.242-21.274-28.797v-10.952c0-13.556 8.956-25.019 21.274-28.797 12.317 3.777 21.274 15.241 21.274 28.797z" fill="#d79b8c" data-original="#d79b8c"></path><path d="m410.949 76.866c0 2.071-1.679 3.75-3.75 3.75h-3.75c-2.071 0-3.75-1.679-3.75-3.75s1.679-3.75 3.75-3.75h3.75c2.071.001 3.75 1.679 3.75 3.75zm20.623-3.749h-3.75c-2.071 0-3.75 1.679-3.75 3.75s1.679 3.75 3.75 3.75h3.75c2.071 0 3.75-1.679 3.75-3.75s-1.679-3.75-3.75-3.75zm-9.937 15.748h-8.249c-.828 0-1.5.672-1.5 1.5v.375c0 3.106 2.518 5.624 5.624 5.624s5.624-2.518 5.624-5.624v-.375c.001-.829-.67-1.5-1.499-1.5z" fill="#b46e5a" data-original="#b46e5a"></path><path d="m406.151 59.016c-1.381-.475-2.724-1.035-4.021-1.672-3.169 9.404-8.586 15.601-14.736 15.601-.017 0-.033 0-.05 0-2.652-.014-4.746-2.283-4.746-4.936v-1.412c0-19.282 15.631-34.913 34.913-34.913 6.199 0 12.021 1.616 17.067 4.449 10.649 5.98-24.866 24.108-28.427 22.883z" fill="#0a4499" data-original="#0a4499"></path><path d="m452.423 66.598v1.412c0 2.652-2.093 4.921-4.746 4.936-.017 0-.033 0-.05 0-6.15 0-11.567-6.198-14.736-15.601-4.64 2.281-9.861 3.563-15.381 3.563-3.977 0-7.799-.665-11.36-1.891 2.637-11.906 11.352-21.527 22.723-25.439 13.704 4.713 23.55 17.716 23.55 33.02z" fill="#0956c6" data-original="#0956c6"></path></g></g></svg>