<svg id="Layer_35" enable-background="new 0 0 64 64" height="512" viewBox="0 0 64 64" width="512" xmlns="http://www.w3.org/2000/svg"><path d="m22 56h20 2c2.21 0 4 1.79 4 4v2h-32v-2c0-2.21 1.79-4 4-4z" fill="#969faa"/><path d="m39 50 3 6h-20l3-6z" fill="#aab2bd"/><path d="m62 16v30c0 2.21-1.79 4-4 4h-19-14-19c-2.21 0-4-1.79-4-4v-30c0-2.21 1.79-4 4-4h18.05.01c.16 1.47.68 2.83 1.46 4h-18.52c-.55 0-1 .45-1 1v24c0 .55.45 1 1 1h11.59c.26 0 .52.11.7.29l1.42 1.42c.18.18.44.29.7.29h35.59c.55 0 1-.45 1-1v-26c0-.55-.45-1-1-1h-16.52c.78-1.17 1.3-2.53 1.46-4h16.06c2.21 0 4 1.79 4 4z" fill="#ccd1d9"/><path d="m57 16h-50c-.55 0-1 .45-1 1v24c0 .55.45 1 1 1h11.59c.26 0 .52.11.7.29l1.42 1.42c.18.18.44.29.7.29h35.59c.55 0 1-.45 1-1v-26c0-.55-.45-1-1-1z" fill="#69d6f4"/><circle cx="45" cy="31" fill="#b4dd7f" r="9"/><circle cx="33" cy="11" fill="#b4dd7f" r="9"/><path d="m48.6 34.99c1.05.63 1.92 1.53 2.52 2.61-1.6 1.49-3.76 2.4-6.12 2.4s-4.52-.91-6.12-2.4c1.2-2.15 3.49-3.6 6.12-3.6 1.32 0 2.54.36 3.6.99z" fill="#fcd770"/><path d="m36.6 14.99c1.05.63 1.92 1.53 2.52 2.61-1.6 1.49-3.76 2.4-6.12 2.4s-4.52-.91-6.12-2.4c1.2-2.15 3.49-3.6 6.12-3.6 1.32 0 2.54.36 3.6.99z" fill="#fcd770"/><circle cx="33" cy="10" fill="#f0d0b4" r="4"/><circle cx="45" cy="30" fill="#f0d0b4" r="4"/><path d="m19 30h1c2.96 0 5.55 1.61 6.93 4 .68 1.17 1.07 2.54 1.07 4h-18c0-2.21.9-4.21 2.34-5.66 1.45-1.44 3.45-2.34 5.66-2.34z" fill="#ef7385"/><path d="m21.39 20.61c1.56.85 2.61 2.5 2.61 4.39 0 2.76-2.24 5-5 5s-5-2.24-5-5 2.24-5 5-5c.87 0 1.68.22 2.39.61z" fill="#f0d0b4"/><path d="m58 11h-15c0-5.514-4.486-10-10-10s-10 4.486-10 10h-17c-2.757 0-5 2.243-5 5v30c0 2.757 2.243 5 5 5h17.382l-2 4h-1.382c-2.757 0-5 2.243-5 5v3h34v-3c0-2.757-2.243-5-5-5h-1.382l-2-4h17.382c2.757 0 5-2.243 5-5v-30c0-2.757-2.243-5-5-5zm-28-1c0-1.654 1.346-3 3-3s3 1.346 3 3-1.346 3-3 3-3-1.346-3-3zm-10 21c3.521 0 6.442 2.612 6.929 6h-15.858c.486-3.388 3.408-6 6.929-6zm-1-2c-2.206 0-4-1.794-4-4s1.794-4 4-4 4 1.794 4 4-1.794 4-4 4zm0-10c-3.309 0-6 2.691-6 6 0 1.796.797 3.406 2.051 4.506-3.517 1.225-6.051 4.565-6.051 8.494v1h20v-1c0-1.053-.191-2.06-.525-3h7.366c1.547 3.527 5.068 6 9.159 6 5.514 0 10-4.486 10-10s-4.486-10-10-10-10 4.486-10 10c0 .685.07 1.354.202 2h-7.723c-1.08-1.61-2.668-2.846-4.53-3.494 1.254-1.1 2.051-2.71 2.051-4.506 0-1.803-.803-3.419-2.066-4.52l2.719-2.719c1.829 1.985 4.441 3.239 7.347 3.239 3.261 0 6.154-1.577 7.981-4h16.019v26h-35.586l-1.414-1.414c-.372-.372-.888-.586-1.414-.586h-11.586v-24h16.586l-2.413 2.413c-.675-.263-1.406-.413-2.173-.413zm23 11c0-1.654 1.346-3 3-3s3 1.346 3 3-1.346 3-3 3-3-1.346-3-3zm9.232 6.004c-.792-.986-1.796-1.763-2.931-2.278 1.034-.917 1.699-2.239 1.699-3.726 0-2.757-2.243-5-5-5s-5 2.243-5 5c0 1.487.665 2.809 1.699 3.726-1.135.516-2.139 1.292-2.931 2.278-1.104-1.371-1.768-3.111-1.768-5.004 0-4.411 3.589-8 8-8s8 3.589 8 8c0 1.893-.664 3.633-1.768 5.004zm-1.44 1.387c-1.337 1.005-2.993 1.609-4.792 1.609s-3.455-.604-4.792-1.609c1.125-1.492 2.895-2.391 4.792-2.391s3.667.899 4.792 2.391zm-21.584-20.001c1.125-1.491 2.895-2.39 4.792-2.39s3.667.899 4.792 2.391c-1.337 1.005-2.993 1.609-4.792 1.609s-3.455-.604-4.792-1.61zm4.792-14.39c4.411 0 8 3.589 8 8 0 1.893-.665 3.633-1.768 5.005-.792-.986-1.796-1.763-2.931-2.278 1.034-.918 1.699-2.24 1.699-3.727 0-2.757-2.243-5-5-5s-5 2.243-5 5c0 1.487.665 2.809 1.699 3.726-1.135.516-2.139 1.293-2.931 2.278-1.104-1.371-1.768-3.111-1.768-5.004 0-4.411 3.589-8 8-8zm14 57v1h-30v-1c0-1.654 1.346-3 3-3h24c1.654 0 3 1.346 3 3zm-6.618-5h-16.764l2-4h12.764zm20.618-9c0 1.654-1.346 3-3 3h-52c-1.654 0-3-1.346-3-3v-30c0-1.654 1.346-3 3-3h17.202c.142.696.36 1.364.639 2h-16.841c-1.103 0-2 .897-2 2v24c0 1.103.897 2 2 2h11.586l1.414 1.414c.372.372.888.586 1.414.586h35.586c1.103 0 2-.897 2-2v-26c0-1.103-.897-2-2-2h-14.841c.279-.636.497-1.304.639-2h15.202c1.654 0 3 1.346 3 3z"/><path d="m7 45h2v2h-2z"/><path d="m11 45h2v2h-2z"/><path d="m15 45h2v2h-2z"/><path d="m9 19h2v2h-2z"/><path d="m9 23h2v2h-2z"/><path d="m9 27h2v2h-2z"/></svg>
