<svg xmlns="http://www.w3.org/2000/svg" version="1.1" xmlns:xlink="http://www.w3.org/1999/xlink" xmlns:svgjs="http://svgjs.com/svgjs" width="512" height="512" x="0" y="0" viewBox="0 0 64 64" style="enable-background:new 0 0 512 512" xml:space="preserve" class=""><g><g xmlns="http://www.w3.org/2000/svg" id="setting-management-setting-gear-hand"><path d="m23 23h17v27h-17z" fill="#a97c50" data-original="#a97c50" style="" class=""></path><path d="m40 23h17v27h-17z" fill="#8b5e3c" data-original="#8b5e3c" style="" class=""></path><path d="m40 47v3h17v-20a17 17 0 0 1 -17 17z" fill="#754c29" data-original="#754c29" style=""></path><path d="m60.28 45.4a2.994 2.994 0 0 0 -4.09-1.1l-10.67 6.16h-.005a2.989 2.989 0 0 0 -2.094-2.06l-14.92-4a6 6 0 0 0 -3.008-.025l-6.493 1.625v12l2.733 1.367a6.007 6.007 0 0 0 2.683.633h14.977a5.993 5.993 0 0 0 3-.8l16.8-9.7a3 3 0 0 0 1.087-4.1z" fill="#ffbcab" data-original="#ffbcab" style="" class=""></path><path d="m45.515 50.46c-.018-.059-.031-.12-.052-.178-.021.062-.044.123-.069.182a2.99 2.99 0 0 1 -3.526 1.736l-5.317-1.424-5.161-1.388a.967.967 0 0 0 -1.193.724.967.967 0 0 0 .693 1.142l10.814 2.9a3.13 3.13 0 0 0 3.629-1.526 2.948 2.948 0 0 0 .182-2.168z" fill="#ff9478" data-original="#ff9478" style=""></path><path d="m53.65 20a3.228 3.228 0 0 1 -.24.58l2.37 2.37-.05.05h-15.46l-.05-.05 2.37-2.37a3.228 3.228 0 0 1 -.24-.58h-3.35v-4h3.35a3.228 3.228 0 0 1 .24-.58l-2.37-2.37 2.83-2.83 2.37 2.37a3.228 3.228 0 0 1 .58-.24v-3.35h4v3.35a3.228 3.228 0 0 1 .58.24l2.37-2.37 2.83 2.83-2.37 2.37a3.228 3.228 0 0 1 .24.58h3.35v4z" fill="#ed1c24" data-original="#ed1c24" style=""></path><path d="m32 3.58v7.42l-3 2-3-2v-7.42a8 8 0 0 0 -2.32 13.39 3.935 3.935 0 0 1 1.32 2.96v3.07h8v-3.07a3.935 3.935 0 0 1 1.32-2.96 8 8 0 0 0 -2.32-13.39z" fill="#ff9811" data-original="#ff9811" style=""></path><path d="m11 43v2 14 2h8v-3-12-3z" fill="#006df0" data-original="#006df0" style="" class=""></path><path d="m3 45h8v14h-8z" fill="#005ece" data-original="#005ece" style="" class=""></path><path d="m29 23h-4-2l-4 8h4 13l4-8h-7z" fill="#8b5e3c" data-original="#8b5e3c" style="" class=""></path><path d="m55.73 23h-15.46-.27l4 8h13 4l-4-8z" fill="#754c29" data-original="#754c29" style=""></path><circle cx="48" cy="18" fill="#e6e7e8" r="3" data-original="#e6e7e8" style=""></circle><path d="m9 45h2v14h-2z" fill="#004fac" data-original="#004fac" style=""></path><g fill="#231f20"><path d="m61.89 30.55-4-8a.977.977 0 0 0 -.89-.55h-.76l-1-1h1.76a1 1 0 0 0 1-1v-4a1 1 0 0 0 -1-1h-1.76l1.25-1.24a1.008 1.008 0 0 0 0-1.42l-2.83-2.83a1.008 1.008 0 0 0 -1.42 0l-1.24 1.25v-1.76a1 1 0 0 0 -1-1h-4a1 1 0 0 0 -1 1v1.76l-1.24-1.25a1.008 1.008 0 0 0 -1.42 0l-2.83 2.83a1.008 1.008 0 0 0 0 1.42l1.25 1.24h-1.76a1 1 0 0 0 -1 1v4a1 1 0 0 0 1 1h1.76l-1 1h-5.76v-2.07a2.959 2.959 0 0 1 .98-2.21 9 9 0 0 0 -2.6-15.07 1 1 0 0 0 -1.38.93v6.88l-2 1.34-2-1.34v-6.88a1 1 0 0 0 -1.38-.93 9 9 0 0 0 -2.6 15.07 2.959 2.959 0 0 1 .98 2.21v2.07h-1a.977.977 0 0 0 -.89.55l-4 8a1 1 0 0 0 .89 1.45h3v12.22l-2 .5v-1.72a1 1 0 0 0 -1-1h-8a1 1 0 0 0 -1 1v1h-7a1 1 0 0 0 -1 1v14a1 1 0 0 0 1 1h7v1a1 1 0 0 0 1 1h8a1 1 0 0 0 1-1v-1.38l1.29.64a7.063 7.063 0 0 0 3.13.74h14.97a6.93 6.93 0 0 0 3.5-.94l16.8-9.7a3.993 3.993 0 0 0 -1.69-7.44v-10.92h3a1 1 0 0 0 .89-1.45zm-51.89 27.45h-6v-12h6zm8 2h-6v-16h6zm22-41v-2h2.35a1.008 1.008 0 0 0 .96-.71 2.374 2.374 0 0 1 .17-.41 1 1 0 0 0 -.18-1.17l-1.67-1.66 1.42-1.42 1.66 1.67a1 1 0 0 0 1.17.18 2.374 2.374 0 0 1 .41-.17 1.008 1.008 0 0 0 .71-.96v-2.35h2v2.35a1.008 1.008 0 0 0 .71.96 2.374 2.374 0 0 1 .41.17 1 1 0 0 0 1.17-.18l1.66-1.67 1.42 1.42-1.67 1.66a1 1 0 0 0 -.18 1.17 2.374 2.374 0 0 1 .17.41 1.008 1.008 0 0 0 .96.71h2.35v2h-2.35a1.008 1.008 0 0 0 -.96.71 2.374 2.374 0 0 1 -.17.41 1 1 0 0 0 .18 1.17l.72.71h-10.84l.72-.71a1 1 0 0 0 .18-1.17 2.374 2.374 0 0 1 -.17-.41 1.008 1.008 0 0 0 -.96-.71zm1 8.24 2.11 4.21a.977.977 0 0 0 .89.55h12v11.28c-.1.05-.21.1-.31.15l-9.75 5.63a3.982 3.982 0 0 0 -2.26-1.63l-2.68-.71zm-19-16.24a6.981 6.981 0 0 1 3-5.75v5.75a1 1 0 0 0 .45.83l3 2a.963.963 0 0 0 1.1 0l3-2a1 1 0 0 0 .45-.83v-5.75a7 7 0 0 1 .66 10.97 4.919 4.919 0 0 0 -1.66 3.71v2.07h-2v-3a1 1 0 0 0 -2 0v3h-2v-2.07a4.945 4.945 0 0 0 -1.65-3.71 6.957 6.957 0 0 1 -2.35-5.22zm-1.38 19 3-6h14.76l-3 6zm18.38-2.76v18.94l-10.24-2.74a6.958 6.958 0 0 0 -3.51-.03l-1.25.31v-11.72h12a.977.977 0 0 0 .89-.55zm20.41 18.66a2 2 0 0 1 -.72 2.73l-16.8 9.7a4.982 4.982 0 0 1 -2.5.67h-14.97a4.956 4.956 0 0 1 -2.24-.53l-2.18-1.09v-10.6l5.73-1.43a4.964 4.964 0 0 1 2.51.02l14.92 4a1.991 1.991 0 0 1 .48 3.66 1.95 1.95 0 0 1 -1.51.2l-11.93-3.2a1 1 0 0 0 -.52 1.94l11.93 3.19a4.072 4.072 0 0 0 1.04.14 3.916 3.916 0 0 0 1.99-.54 3.975 3.975 0 0 0 1.87-2.43 4.118 4.118 0 0 0 .11-1.35l10.07-5.81a2.025 2.025 0 0 1 2.72.73zm-14.79-15.9-3-6h14.76l3 6z" fill="#231f20" data-original="#231f20" style="" class=""></path><path d="m52 18a4 4 0 1 0 -4 4 4 4 0 0 0 4-4zm-4 2a2 2 0 1 1 2-2 2 2 0 0 1 -2 2z" fill="#231f20" data-original="#231f20" style="" class=""></path></g></g></g></svg>
