<svg xmlns="http://www.w3.org/2000/svg" version="1.1" xmlns:xlink="http://www.w3.org/1999/xlink" xmlns:svgjs="http://svgjs.com/svgjs" width="512" height="512" x="0" y="0" viewBox="0 0 256 256" style="enable-background:new 0 0 512 512" xml:space="preserve" class=""><g><g xmlns="http://www.w3.org/2000/svg" id="Layer_35"><g><g><g><g><path d="m78.848 226.649h-2.796c-.409 0-.769-.274-.872-.67-.438-1.674-1.1-3.256-1.954-4.713-.207-.353-.147-.802.142-1.091l1.978-1.978c.353-.353.353-.926 0-1.279l-4.516-4.518c-.353-.353-.926-.353-1.279 0l-1.978 1.978c-.289.29-.738.349-1.091.142-1.458-.854-3.04-1.516-4.713-1.954-.396-.104-.67-.463-.67-.872v-2.796c0-.5-.405-.905-.904-.905h-6.388c-.5 0-.904.405-.904.905v2.796c0 .409-.274.768-.67.872-1.674.438-3.256 1.1-4.713 1.954-.353.207-.802.147-1.091-.142l-1.978-1.978c-.353-.353-.926-.353-1.279 0l-4.517 4.517c-.353.353-.353.926 0 1.279l1.978 1.978c.29.29.349.738.142 1.091-.854 1.458-1.516 3.04-1.954 4.713-.103.396-.463.67-.872.67h-2.796c-.5 0-.905.405-.905.904v6.388c0 .5.405.904.905.904h2.796c.409 0 .769.274.872.67.438 1.674 1.1 3.256 1.954 4.713.207.353.147.802-.142 1.091l-1.978 1.978c-.353.353-.353.926 0 1.279l4.517 4.517c.353.353.926.353 1.279 0l1.978-1.978c.29-.29.738-.349 1.091-.142 1.458.854 3.04 1.516 4.713 1.954.396.103.67.463.67.872v2.796c0 .5.405.904.904.904h6.388c.5 0 .904-.405.904-.904v-2.796c0-.409.274-.769.67-.872 1.674-.438 3.256-1.1 4.713-1.954.353-.207.802-.147 1.091.142l1.978 1.978c.353.353.926.353 1.279 0l4.517-4.517c.353-.353.353-.926 0-1.279l-1.978-1.978c-.289-.29-.349-.738-.142-1.091.854-1.457 1.516-3.04 1.954-4.713.103-.396.463-.67.872-.67h2.796c.5 0 .905-.405.905-.904v-6.388c-.001-.498-.406-.903-.906-.903zm-21.848 14.744c-5.879 0-10.646-4.766-10.646-10.646 0-5.879 4.766-10.646 10.646-10.646 5.879 0 10.646 4.766 10.646 10.646s-4.767 10.646-10.646 10.646z" fill="#f5c84c" data-original="#f5c84c"></path></g></g></g><g><g><circle cx="128" cy="217.5" fill="#f9c1a8" r="10" data-original="#f9c1a8" class=""></circle></g></g><g><g><path d="m137.162 227.5h-18.323c-4.861 0-8.838 3.977-8.838 8.838v13.614c0 1.959 1.588 3.548 3.548 3.548h28.904c1.959 0 3.548-1.588 3.548-3.548v-13.614c-.001-4.861-3.978-8.838-8.839-8.838z" fill="#70d6f9" data-original="#70d6f9"></path></g></g><g><g><path d="m128 236.5c4.418 0 8-3.582 8-8 0-.339-.028-.672-.069-1h-15.862c-.041.328-.069.661-.069 1 0 4.418 3.582 8 8 8z" fill="#f9c1a8" data-original="#f9c1a8" class=""></path></g></g><g><g><path d="m216.525 207.5h-36.051c-2.736 0-4.975 2.239-4.975 4.975v36.051c0 2.736 2.239 4.975 4.975 4.975h36.051c2.736 0 4.975-2.239 4.975-4.975v-36.051c0-2.736-2.239-4.975-4.975-4.975z" fill="#edf4fc" data-original="#edf4fc"></path></g></g><g><g><path d="m216.525 207.5h-36.051c-2.736 0-4.975 2.239-4.975 4.975v7.025h46v-7.025c.001-2.736-2.238-4.975-4.974-4.975z" fill="#3a70bf" data-original="#3a70bf"></path></g></g><g><g><path d="m187.5 207.5h-7.025c-2.736 0-4.975 2.239-4.975 4.975v7.025h12z" fill="#fc657e" data-original="#fc657e"></path></g></g><g><g><path d="m189.57 79.736c-1.029-.647-2.338-.647-3.366 0l-20.71 13.023 22.232 14.001 22.555-14.001z" fill="#9be5f9" data-original="#9be5f9"></path></g></g><g><g><path d="m165.494 92.759v22.473c0 1.083.555 2.092 1.47 2.671l20.762 13.15v-.12-24.173z" fill="#70d6f9" data-original="#70d6f9"></path></g></g><g><g><path d="m187.726 106.76v24.293l21.067-13.152c.925-.578 1.488-1.592 1.488-2.682v-22.46z" fill="#3caadc" data-original="#3caadc"></path></g></g><g><g><path d="m55.705 166.654c-4.498-.838-8.043-4.31-8.898-8.716-.043-.221-.352-.221-.395 0-.855 4.406-4.4 7.879-8.898 8.716-.226.042-.226.345 0 .387 4.498.838 8.043 4.31 8.898 8.717.043.221.352.221.395 0 .855-4.406 4.4-7.879 8.898-8.717.226-.043.226-.345 0-.387z" fill="#f5c84c" data-original="#f5c84c"></path></g></g><g><g><path d="m188.903 13.108c-2.586-.482-4.625-2.479-5.116-5.012-.025-.127-.202-.127-.227 0-.492 2.534-2.53 4.531-5.117 5.012-.13.024-.13.198 0 .222 2.586.482 4.625 2.479 5.117 5.012.025.127.202.127.227 0 .492-2.534 2.53-4.531 5.116-5.012.129-.024.129-.198 0-.222z" fill="#87d147" data-original="#87d147"></path></g></g><g><g><path d="m190.442 52.487h2.33v-2.33c0-1.744 1.413-3.157 3.157-3.157s3.157 1.413 3.157 3.157v2.33h2.329c1.744 0 3.157 1.413 3.157 3.157s-1.413 3.157-3.157 3.157h-2.329v2.33c0 1.744-1.413 3.157-3.157 3.157s-3.157-1.413-3.157-3.157v-2.33h-2.33c-1.744 0-3.157-1.413-3.157-3.157 0-1.743 1.413-3.157 3.157-3.157z" fill="#70d6f9" data-original="#70d6f9"></path></g></g><g><g><circle cx="214.721" cy="72.377" fill="#f5c84c" r="3.377" data-original="#f5c84c"></circle></g></g><g><g><circle cx="36.721" cy="197.377" fill="#fc657e" r="3.377" data-original="#fc657e"></circle></g></g><g><g><path d="m186.429 130.231-19.465-12.328c-.915-.58-1.47-1.588-1.47-2.671v-4.022l-10.609-2.67-7.953-3.921c-3.418-1.686-5.583-5.166-5.583-8.978v-4.932c-4.102 2.233-8.794 3.504-13.77 3.504-4.639 0-9.029-1.111-12.927-3.071v4.499c0 3.812-2.165 7.292-5.583 8.978l-7.953 3.921-22.502 5.664c-4.852 1.221-8.347 5.456-8.625 10.452l-2.204 29.457c-.102 1.822 1.349 3.355 3.174 3.355h114.083c1.825 0 3.275-1.533 3.174-3.355z" fill="#edf4fc" data-original="#edf4fc"></path></g></g><g><g><g><path d="m123.938 114.558c.505.528.655 1.259.472 1.916h7.129c-.27-.709-.127-1.54.441-2.114l11.925-12.064c-1.609-1.803-2.557-4.152-2.557-6.655v-4.932c-4.102 2.233-8.795 3.504-13.77 3.504-4.639 0-9.029-1.111-12.927-3.071v4.499c0 2.475-.924 4.801-2.5 6.596z" fill="#f9c1a8" data-original="#f9c1a8" class=""></path></g></g></g><g><g><path d="m186.429 130.231-19.465-12.328c-.915-.58-1.47-1.588-1.47-2.671v-4.022l-10.609-2.67-7.259-3.579-13.127 52.508h50.543c1.825 0 3.275-1.533 3.174-3.355z" fill="#3a70bf" data-original="#3a70bf"></path></g></g><g><g><path d="m78.613 114.203 22.502-5.664 7.259-3.579 13.127 52.507h-50.543c-1.825 0-3.275-1.533-3.174-3.355l2.204-29.457c.279-4.996 3.773-9.231 8.625-10.452z" fill="#3a70bf" data-original="#3a70bf"></path></g></g><g><g><path d="m123.938 114.558-11.786-12.322c-.851.969-1.884 1.791-3.083 2.382l-.694.342 2.814 11.254 5.264 5.504c.762.796 2.025.824 2.822.063l4.601-4.401c.795-.763.823-2.026.062-2.822z" fill="#edf4fc" data-original="#edf4fc"></path></g></g><g><g><path d="m139.347 121.642 5.499-5.563 2.78-11.118-.694-.342c-1.173-.579-2.185-1.38-3.026-2.322l-11.925 12.064c-.775.784-.767 2.047.016 2.822l4.528 4.476c.784.774 2.048.766 2.822-.017z" fill="#edf4fc" data-original="#edf4fc"></path></g></g><g><g><path d="m131.997 117.181c-.209-.207-.359-.45-.457-.708h-7.129c-.093.334-.267.649-.535.906l-3.329 3.184 2.954 5.909h8.999l2.942-5.885z" fill="#fc657e" data-original="#fc657e"></path></g></g><g><g><path d="m132.499 126.472h-8.998l-3.172 26.306 1.172 4.69h12.998l1.166-4.664z" fill="#fc657e" data-original="#fc657e"></path></g></g><g><g><path d="m152.974 133.994c.338-.338.551-.782.602-1.258l2.559-23.882-1.25-.315-7.259-3.579-13.127 52.507h10.76l4.726-9.925c.317-.666.261-1.449-.148-2.063l-2.387-3.581c-.554-.831-.444-1.937.262-2.643z" fill="#5290db" data-original="#5290db"></path></g></g><g><g><path d="m103.026 133.994c-.338-.338-.551-.782-.602-1.258l-2.559-23.882 1.25-.315 7.259-3.579 13.127 52.507h-10.76l-4.726-9.925c-.317-.666-.261-1.449.148-2.063l2.387-3.581c.554-.831.444-1.937-.262-2.643z" fill="#5290db" data-original="#5290db"></path></g></g><g><g><path d="m131.918 30.085c-10.583 13.309-26.195 11.43-31.444 10.332-.954-.2-1.869.519-1.87 1.494v.02 23.307c0 15.936 13.038 28.974 28.974 28.974 15.936 0 28.974-13.038 28.974-28.974v-25.81c0-.151-.002-.302-.005-.453-.016-.822-.674-1.499-1.496-1.523-12.037-.353-18.379-5.123-20.816-7.512-.664-.653-1.737-.584-2.317.145z" fill="#f9c1a8" data-original="#f9c1a8" class=""></path></g></g><g><g><path d="m158.412 43.156c-.633 0-1.253.053-1.859.147v21.935c0 .653-.03 1.3-.073 1.943.631.102 1.273.169 1.932.169 6.681 0 12.097-5.416 12.097-12.097s-5.416-12.097-12.097-12.097z" fill="#f9c1a8" data-original="#f9c1a8" class=""></path></g></g><g><g><path d="m98.604 65.238c0-3.002 0-15.966 0-21.935-.606-.094-1.226-.147-1.859-.147-6.681 0-12.097 5.416-12.097 12.097s5.416 12.097 12.097 12.097c.659 0 1.302-.067 1.932-.169-.043-.643-.073-1.29-.073-1.943z" fill="#f9c1a8" data-original="#f9c1a8" class=""></path></g></g><g><g><g><path d="m96.745 43.156c.633 0 1.253.053 1.859.147v-1.373c0-.007 0-.013 0-.02.001-.975.916-1.694 1.87-1.494 5.249 1.099 20.861 2.977 31.444-10.332.58-.729 1.654-.798 2.319-.146 2.437 2.389 8.779 7.159 20.816 7.512.822.024 1.48.701 1.496 1.523.003.151.005.302.005.453v3.875c.606-.094 1.226-.147 1.859-.147 3.261 0 6.215 1.297 8.39 3.394v-21.757c0-9.103-7.448-16.551-16.551-16.551-3.087 0-5.974.872-8.455 2.36-2.897-4.835-8.176-8.1-14.193-8.1h-8.499c-16.449 0-29.908 13.458-29.908 29.908v13.401c2.07-1.657 4.691-2.653 7.548-2.653z" fill="#414344" data-original="#414344"></path></g></g></g><g><g><path d="m127.579 96.712c-17.355 0-31.475-14.119-31.475-31.474v-23.307c.001-1.235.544-2.371 1.489-3.138.955-.774 2.191-1.075 3.393-.822 5.536 1.158 19.434 2.557 28.975-9.441l-.001.001c.717-.902 1.785-1.46 2.933-1.531 1.143-.077 2.273.35 3.095 1.156 1.972 1.933 7.786 6.465 19.139 6.798 2.155.063 3.879 1.807 3.922 3.972l.005.503v25.811c-.001 17.353-14.12 31.472-31.475 31.472zm-26.475-53.63v22.156c0 14.598 11.876 26.474 26.475 26.474 14.598 0 26.474-11.876 26.474-26.474v-25.323c-11.116-.533-17.603-4.63-20.818-7.492-10.803 12.793-26.123 11.701-32.131 10.659zm30.814-12.997h.01z" fill="#000000" data-original="#000000" class=""></path></g></g><g><g><g><path d="m166.804 49.05c-.636 0-1.261-.242-1.736-.7-1.802-1.737-4.165-2.694-6.655-2.694-.474 0-.971.04-1.478.118-.72.111-1.455-.098-2.009-.573s-.873-1.168-.873-1.898v-3.388c-11.116-.533-17.603-4.63-20.818-7.492-10.803 12.791-26.122 11.702-32.13 10.659v.221c0 .729-.318 1.423-.873 1.898-.554.475-1.289.684-2.009.573-.507-.079-1.004-.118-1.478-.118-2.196 0-4.266.728-5.985 2.104-.751.601-1.779.718-2.646.302s-1.417-1.292-1.417-2.253v-13.4c0-17.871 14.538-32.409 32.407-32.409h8.499c5.85 0 11.408 2.775 15.001 7.37 2.414-1.07 5.019-1.629 7.647-1.629 10.505 0 19.051 8.546 19.051 19.051v21.758c0 1.003-.6 1.909-1.522 2.301-.315.134-.647.199-.976.199zm-7.751-8.381c1.83.08 3.605.499 5.25 1.227v-17.104c0-7.748-6.303-14.051-14.051-14.051-2.503 0-4.982.693-7.17 2.004-.568.34-1.251.441-1.893.28-.644-.161-1.196-.571-1.537-1.14-2.545-4.247-7.162-6.885-12.048-6.885h-8.499c-15.112 0-27.407 12.295-27.407 27.408v9.155c1.472-.544 3.03-.852 4.608-.9.237-.729.68-1.375 1.289-1.87.953-.774 2.19-1.075 3.392-.822 5.536 1.158 19.434 2.557 28.975-9.441.716-.901 1.784-1.459 2.932-1.53 1.143-.077 2.273.35 3.095 1.156 1.972 1.933 7.786 6.465 19.139 6.798 2.155.063 3.879 1.807 3.922 3.972z" fill="#000000" data-original="#000000" class=""></path></g></g></g><g><g><path d="m128 80.624c-4.56 0-8.808-2.258-11.362-6.041-.773-1.144-.473-2.698.672-3.471 1.143-.773 2.698-.473 3.471.672 1.625 2.404 4.323 3.839 7.22 3.839s5.595-1.436 7.22-3.839c.772-1.145 2.328-1.445 3.471-.672 1.145.773 1.445 2.327.672 3.471-2.556 3.782-6.804 6.041-11.364 6.041z" fill="#000000" data-original="#000000" class=""></path></g></g><g><g><path d="m185.042 159.968h-114.084c-1.554 0-3.058-.647-4.125-1.776s-1.631-2.667-1.544-4.219l2.206-29.504c.338-6.075 4.563-11.194 10.508-12.69l22.245-5.599 7.715-3.804c2.584-1.274 4.188-3.854 4.188-6.735v-4.499c0-.867.449-1.673 1.188-2.128s1.66-.494 2.436-.106c3.702 1.861 7.674 2.805 11.804 2.805 4.381 0 8.729-1.106 12.575-3.2.774-.421 1.714-.404 2.473.046.758.451 1.223 1.268 1.223 2.149v4.932c0 2.881 1.604 5.461 4.188 6.735l7.715 3.804 9.883 2.487c1.339.337 2.151 1.696 1.814 3.035-.338 1.339-1.696 2.153-3.035 1.814l-10.14-2.552c-.171-.043-.337-.104-.495-.182l-7.953-3.921c-4.304-2.122-6.978-6.421-6.978-11.22v-1.028c-3.585 1.381-7.417 2.101-11.271 2.101-3.594 0-7.087-.6-10.427-1.788v.715c0 4.799-2.674 9.098-6.978 11.22l-7.953 3.921c-.158.078-.324.139-.495.182l-22.502 5.664c-3.813.959-6.521 4.241-6.739 8.167l-2.206 29.504c-.011.194.096.36.188.457s.251.212.492.212h114.084c.241 0 .4-.115.492-.212s.198-.263.185-.504l-1.71-22.851c-.103-1.377.93-2.577 2.307-2.68 1.388-.092 2.576.93 2.68 2.307l1.713 22.898c.09 1.599-.474 3.137-1.541 4.266-1.069 1.129-2.572 1.777-4.126 1.777z" fill="#000000" data-original="#000000" class=""></path></g></g><g><g><path d="m165.18 158.968c-1.381 0-2.5-1.119-2.5-2.5v-24.966c0-1.381 1.119-2.5 2.5-2.5s2.5 1.119 2.5 2.5v24.966c0 1.381-1.119 2.5-2.5 2.5z" fill="#000000" data-original="#000000" class=""></path></g></g><g><g><path d="m90.82 158.968c-1.381 0-2.5-1.119-2.5-2.5v-24.966c0-1.381 1.119-2.5 2.5-2.5s2.5 1.119 2.5 2.5v24.966c0 1.381-1.119 2.5-2.5 2.5z" fill="#000000" data-original="#000000" class=""></path></g></g><g><g><g><circle cx="116.455" cy="56.771" r="3.835" fill="#000000" data-original="#000000" class=""></circle></g></g><g><g><circle cx="139.059" cy="56.771" r="3.835" fill="#000000" data-original="#000000" class=""></circle></g></g></g><g><g><path d="m158.412 69.85c-.729 0-1.491-.066-2.33-.201-1.273-.206-2.182-1.347-2.096-2.635.039-.588.066-1.179.066-1.776v-21.935c0-1.232.898-2.281 2.116-2.47 9.062-1.411 16.841 5.639 16.841 14.42.001 8.049-6.548 14.597-14.597 14.597zm.641-24.173v19.152c4.995-.331 8.957-4.5 8.957-9.576s-3.962-9.246-8.957-9.576z" fill="#000000" data-original="#000000" class=""></path></g></g><g><g><path d="m96.745 69.85c-8.049 0-14.598-6.548-14.598-14.597s6.549-14.597 14.598-14.597c.732 0 1.487.06 2.243.177 1.218.189 2.116 1.238 2.116 2.47v21.935c0 .596.027 1.185.067 1.772.088 1.289-.82 2.432-2.095 2.638-.838.136-1.6.202-2.331.202zm-.641-24.173c-4.995.331-8.957 4.5-8.957 9.576s3.962 9.246 8.957 9.576z" fill="#000000" data-original="#000000" class=""></path></g></g><g><g><path d="m134.643 159.4c-.201 0-.404-.024-.608-.075-1.34-.335-2.153-1.692-1.819-3.032l12.802-51.206c.335-1.339 1.692-2.153 3.032-1.819 1.34.335 2.153 1.692 1.819 3.032l-12.802 51.206c-.285 1.136-1.304 1.894-2.424 1.894z" fill="#000000" data-original="#000000" class=""></path></g></g><g><g><path d="m121.368 159.447c-1.12 0-2.14-.758-2.424-1.894l-12.885-51.542c-.334-1.34.48-2.697 1.819-3.032 1.339-.334 2.696.479 3.032 1.819l12.885 51.542c.334 1.34-.48 2.697-1.819 3.032-.204.05-.407.075-.608.075z" fill="#000000" data-original="#000000" class=""></path></g></g><g><g><path d="m117.897 124.834c-.034 0-.069 0-.104-.001-1.2-.027-2.318-.52-3.148-1.387l-5.018-5.246c-.954-.998-.919-2.58.078-3.535.998-.955 2.58-.919 3.535.079l4.669 4.881 3.872-3.704-10.774-11.264c-.954-.998-.919-2.58.078-3.535.998-.954 2.58-.92 3.535.079l11.123 11.628c1.713 1.791 1.649 4.642-.14 6.355l-4.603 4.402c-.841.808-1.939 1.248-3.103 1.248z" fill="#000000" data-original="#000000" class=""></path></g></g><g><g><path d="m137.928 124.732c-1.144 0-2.286-.432-3.161-1.297l-4.527-4.476c-1.763-1.742-1.779-4.594-.037-6.357l11.467-11.6c.972-.983 2.554-.992 3.536-.021.981.971.991 2.553.021 3.535l-11.112 11.242 3.812 3.767 4.855-4.913c.972-.983 2.555-.992 3.536-.021s.991 2.553.021 3.535l-5.211 5.271c-.881.89-2.041 1.335-3.2 1.335z" fill="#000000" data-original="#000000" class=""></path></g></g><g><g><path d="m131.125 118.973h-6.25c-1.381 0-2.5-1.119-2.5-2.5s1.119-2.5 2.5-2.5h6.25c1.381 0 2.5 1.119 2.5 2.5s-1.119 2.5-2.5 2.5z" fill="#000000" data-original="#000000" class=""></path></g></g><g><g><path d="m132.497 128.973c-.376 0-.757-.085-1.116-.264-1.234-.618-1.735-2.119-1.118-3.354l2.747-5.495c.618-1.235 2.118-1.735 3.354-1.118 1.234.618 1.735 2.119 1.118 3.354l-2.747 5.495c-.438.875-1.321 1.382-2.238 1.382z" fill="#000000" data-original="#000000" class=""></path></g></g><g><g><path d="m123.503 128.973c-.917 0-1.8-.506-2.238-1.382l-2.503-5.005c-.617-1.235-.117-2.737 1.118-3.354 1.232-.618 2.736-.117 3.354 1.118l2.503 5.005c.617 1.235.117 2.737-1.118 3.354-.358.179-.74.264-1.116.264z" fill="#000000" data-original="#000000" class=""></path></g></g><g><g><path d="m120.347 155.152c-.1 0-.2-.006-.303-.019-1.37-.165-2.348-1.411-2.183-2.781l3.157-26.18c.152-1.256 1.218-2.201 2.482-2.201h8.998c1.266 0 2.331.945 2.482 2.202l3.134 26.063c.164 1.371-.813 2.616-2.184 2.78-1.372.167-2.615-.813-2.781-2.184l-2.869-23.861h-4.563l-2.892 23.979c-.152 1.27-1.231 2.202-2.478 2.202z" fill="#000000" data-original="#000000" class=""></path></g></g><g><g><path d="m145.532 159.392c-.36 0-.726-.078-1.073-.243-1.246-.594-1.775-2.085-1.182-3.332l4.353-9.141-2.26-3.39c-1.211-1.816-.97-4.254.574-5.797l5.16-5.161 2.484-23.184c.146-1.373 1.367-2.366 2.752-2.22 1.373.147 2.366 1.379 2.219 2.752l-2.499 23.326c-.11 1.039-.579 2.019-1.318 2.759l-5.027 5.028 2.202 3.305c.893 1.339 1.018 3.073.325 4.525l-4.451 9.347c-.428.9-1.324 1.426-2.259 1.426z" fill="#000000" data-original="#000000" class=""></path></g></g><g><g><path d="m110.367 159.181c-.935 0-1.831-.526-2.259-1.426l-4.351-9.138c-.692-1.452-.567-3.186.325-4.524l2.202-3.305-5.026-5.027c-.74-.741-1.209-1.721-1.32-2.76l-2.452-22.892c-.147-1.373.846-2.605 2.219-2.752 1.377-.147 2.605.847 2.752 2.219l2.438 22.751 5.16 5.161c1.544 1.543 1.785 3.981.574 5.797l-2.26 3.39 4.252 8.93c.594 1.247.064 2.738-1.183 3.332-.345.166-.71.244-1.071.244z" fill="#000000" data-original="#000000" class=""></path></g></g><g><g><path d="m210.278 95.259c-.455 0-.915-.124-1.329-.384l-20.71-13.023c-.212-.134-.488-.135-.704 0l-20.71 13.023c-1.17.736-2.712.384-3.447-.785s-.384-2.712.785-3.447l20.71-13.023c1.83-1.151 4.197-1.152 6.027 0l20.711 13.023c1.169.735 1.521 2.278.785 3.447-.474.755-1.287 1.169-2.118 1.169z" fill="#000000" data-original="#000000" class=""></path></g></g><g><g><path d="m187.726 109.26c-.463 0-.925-.128-1.332-.385l-21.219-13.363c-1.169-.735-1.52-2.279-.783-3.447.735-1.169 2.282-1.518 3.447-.783l19.896 12.53 20.516-12.736c1.172-.727 2.714-.368 3.442.806.729 1.173.367 2.714-.806 3.442l-21.844 13.56c-.402.25-.86.376-1.317.376z" fill="#000000" data-original="#000000" class=""></path></g></g><g><g><path d="m187.726 132.375c-1.381 0-2.5-1.119-2.5-2.5v-23.115c0-1.381 1.119-2.5 2.5-2.5s2.5 1.119 2.5 2.5v23.115c0 1.38-1.12 2.5-2.5 2.5z" fill="#000000" data-original="#000000" class=""></path></g></g><g><g><path d="m187.724 133.553c-.458 0-.921-.125-1.336-.389l-20.762-13.15c-1.647-1.044-2.632-2.832-2.632-4.783v-22.472c0-1.381 1.119-2.5 2.5-2.5s2.5 1.119 2.5 2.5v22.473c0 .229.115.438.308.56l20.762 13.15c1.166.739 1.513 2.283.774 3.45-.477.75-1.286 1.161-2.114 1.161z" fill="#000000" data-original="#000000" class=""></path></g></g><g><g><path d="m187.728 133.553c-.833 0-1.648-.417-2.123-1.177-.73-1.171-.374-2.713.797-3.444l21.067-13.152c.195-.122.312-.332.312-.562v-22.459c0-1.381 1.119-2.5 2.5-2.5s2.5 1.119 2.5 2.5v22.459c0 1.967-.996 3.762-2.664 4.803l-21.066 13.152c-.413.258-.871.38-1.323.38z" fill="#000000" data-original="#000000" class=""></path></g></g><g><g><path d="m128 199.682c-1.381 0-2.5-1.119-2.5-2.5v-28.363c0-1.381 1.119-2.5 2.5-2.5s2.5 1.119 2.5 2.5v28.363c0 1.381-1.119 2.5-2.5 2.5z" fill="#000000" data-original="#000000" class=""></path></g></g><g><g><path d="m198.993 199.682c-1.381 0-2.5-1.119-2.5-2.5v-11.318h-136.986v11.318c0 1.381-1.119 2.5-2.5 2.5s-2.5-1.119-2.5-2.5v-13.818c0-1.381 1.119-2.5 2.5-2.5h141.986c1.381 0 2.5 1.119 2.5 2.5v13.818c0 1.381-1.119 2.5-2.5 2.5z" fill="#000000" data-original="#000000" class=""></path></g></g><g><g><g><path d="m60.193 256h-6.387c-1.878 0-3.405-1.527-3.405-3.404v-1.601c-1.048-.341-2.068-.764-3.052-1.265l-1.132 1.132c-1.292 1.29-3.532 1.286-4.816 0l-4.516-4.516c-.644-.643-.997-1.498-.997-2.407 0-.91.354-1.766.998-2.409l1.131-1.131c-.501-.983-.924-2.004-1.266-3.052h-1.601c-1.877 0-3.404-1.527-3.404-3.405v-6.388c0-1.877 1.527-3.404 3.404-3.404h1.601c.342-1.049.766-2.069 1.266-3.052l-1.132-1.133c-.644-.643-.997-1.498-.997-2.407 0-.91.354-1.766.998-2.409l4.516-4.515c.64-.642 1.494-.997 2.404-.998h.003c.909 0 1.765.354 2.407.998l1.133 1.132c.983-.501 2.004-.924 3.052-1.266v-1.601c0-1.877 1.527-3.404 3.405-3.404h6.387c1.878 0 3.405 1.527 3.405 3.404v1.601c1.048.342 2.068.765 3.052 1.266l1.133-1.132c1.285-1.287 3.529-1.287 4.814 0l4.517 4.517c.643.642.997 1.497.997 2.407 0 .909-.354 1.764-.997 2.407l-1.132 1.133c.5.983.924 2.003 1.266 3.052h1.601c1.877 0 3.404 1.527 3.404 3.404v6.388c0 1.877-1.527 3.405-3.404 3.405h-1.601c-.342 1.049-.766 2.069-1.266 3.052l1.133 1.133c.642.641.996 1.497.996 2.407 0 .909-.354 1.764-.997 2.407l-4.517 4.517c-1.329 1.328-3.488 1.325-4.813.001l-1.134-1.134c-.983.501-2.004.924-3.052 1.265v1.601c.001 1.877-1.527 3.404-3.405 3.404zm-4.792-5h3.197v-1.201c0-1.546 1.043-2.899 2.537-3.291 1.43-.374 2.804-.943 4.082-1.692 1.333-.781 3.026-.562 4.122.53l.851.852 2.261-2.261-.851-.851c-1.094-1.092-1.313-2.789-.53-4.123.747-1.276 1.317-2.65 1.692-4.082.39-1.493 1.742-2.537 3.289-2.537h1.201v-3.197h-1.201c-1.546 0-2.898-1.043-3.29-2.537-.374-1.431-.944-2.805-1.692-4.083-.781-1.334-.563-3.03.533-4.124l.849-.849-2.261-2.26-.85.85c-1.096 1.094-2.79 1.312-4.123.532-1.278-.749-2.652-1.318-4.082-1.693-1.494-.391-2.537-1.744-2.537-3.291v-1.2h-3.197v1.2c0 1.546-1.043 2.899-2.537 3.291-1.43.375-2.804.944-4.082 1.693-1.333.779-3.027.563-4.122-.531l-.851-.851-2.261 2.26.85.85c1.095 1.092 1.313 2.788.532 4.122-.748 1.278-1.318 2.652-1.693 4.083-.391 1.493-1.743 2.537-3.289 2.537h-1.201v3.197h1.201c1.547 0 2.899 1.043 3.29 2.538.374 1.431.944 2.805 1.692 4.083.782 1.333.563 3.029-.533 4.123l-.849.849 2.261 2.261.849-.85c1.096-1.093 2.788-1.313 4.124-.532 1.278.749 2.652 1.318 4.081 1.692 1.495.392 2.538 1.745 2.538 3.291zm18.177-5.935c.001 0 .001.001.002.002zm-33.154-.001-.002.001s.001-.001.002-.001zm38.425-15.915h.01zm-33.909-14.983-.003.003c.001-.002.002-.002.003-.003zm12.06 29.727c-7.248 0-13.146-5.897-13.146-13.146s5.898-13.145 13.146-13.145 13.146 5.897 13.146 13.146-5.898 13.145-13.146 13.145zm0-21.291c-4.491 0-8.146 3.654-8.146 8.146s3.654 8.146 8.146 8.146 8.146-3.654 8.146-8.146-3.655-8.146-8.146-8.146z" fill="#000000" data-original="#000000" class=""></path></g></g></g><g><g><path d="m128 230c-6.893 0-12.5-5.607-12.5-12.5s5.607-12.5 12.5-12.5 12.5 5.607 12.5 12.5-5.607 12.5-12.5 12.5zm0-20c-4.136 0-7.5 3.364-7.5 7.5s3.364 7.5 7.5 7.5 7.5-3.364 7.5-7.5-3.364-7.5-7.5-7.5z" fill="#000000" data-original="#000000" class=""></path></g></g><g><g><path d="m142.452 256h-28.904c-3.335 0-6.048-2.713-6.048-6.048v-13.614c0-6.252 5.086-11.338 11.338-11.338h18.324c6.252 0 11.338 5.086 11.338 11.338v13.614c0 3.335-2.713 6.048-6.048 6.048zm-23.614-26c-3.495 0-6.338 2.843-6.338 6.338v13.614c0 .578.47 1.048 1.048 1.048h28.904c.578 0 1.048-.47 1.048-1.048v-13.614c0-3.495-2.843-6.338-6.338-6.338z" fill="#000000" data-original="#000000" class=""></path></g></g><g><g><path d="m128 239c-5.79 0-10.5-4.71-10.5-10.5 0-.275.014-.547.036-.816.113-1.376 1.336-2.384 2.696-2.287 1.376.113 2.399 1.321 2.286 2.697-.011.134-.019.27-.019.406 0 3.033 2.468 5.5 5.5 5.5s5.5-2.467 5.5-5.5c0-.144-.008-.287-.021-.427-.129-1.375.88-2.594 2.255-2.723 1.393-.132 2.594.88 2.724 2.254.027.295.043.594.043.896 0 5.79-4.71 10.5-10.5 10.5z" fill="#000000" data-original="#000000" class=""></path></g></g><g><g><path d="m216.525 256h-36.051c-4.121 0-7.475-3.353-7.475-7.475v-36.051c0-4.122 3.354-7.475 7.475-7.475h36.051c4.121 0 7.475 3.353 7.475 7.475v36.051c0 4.122-3.354 7.475-7.475 7.475zm-36.05-46c-1.364 0-2.475 1.11-2.475 2.475v36.051c0 1.365 1.11 2.475 2.475 2.475h36.051c1.364 0 2.475-1.11 2.475-2.475v-36.051c0-1.365-1.11-2.475-2.475-2.475z" fill="#000000" data-original="#000000" class=""></path></g></g><g><g><path d="m221.063 222h-44.719c-1.381 0-2.5-1.119-2.5-2.5s1.119-2.5 2.5-2.5h44.719c1.381 0 2.5 1.119 2.5 2.5s-1.12 2.5-2.5 2.5z" fill="#000000" data-original="#000000" class=""></path></g></g><g><g><path d="m187.5 221.313c-1.381 0-2.5-1.119-2.5-2.5v-10.624c0-1.381 1.119-2.5 2.5-2.5s2.5 1.119 2.5 2.5v10.624c0 1.38-1.119 2.5-2.5 2.5z" fill="#000000" data-original="#000000" class=""></path></g></g></g></g></g></svg>
