<svg height="512" viewBox="0 0 64 64" width="512" xmlns="http://www.w3.org/2000/svg"><g id="team-teamwork-connection-investors-financial"><path d="m46 17a14.019 14.019 0 0 1 -11.18 13.72 14.577 14.577 0 0 1 -2.82.28 14 14 0 0 1 0-28 14.577 14.577 0 0 1 2.82.28 14.019 14.019 0 0 1 11.18 13.72z" fill="#ffe477"/><g fill="#ffd422"><path d="m46 17a14.019 14.019 0 0 1 -11.18 13.72 14.328 14.328 0 0 1 -5.32.06l.32-.06a14.009 14.009 0 0 0 0-27.44l-.32-.06a14.328 14.328 0 0 1 5.32.06 14.019 14.019 0 0 1 11.18 13.72z"/><path d="m38 13a3.995 3.995 0 0 1 -4 4h-6v-8h6a4 4 0 0 1 4 4z"/><path d="m38 21a3.995 3.995 0 0 1 -4 4h-6v-8h6a4 4 0 0 1 4 4z"/></g><path d="m38 13a3.995 3.995 0 0 1 -4 4h-4a4 4 0 0 0 0-8h4a4 4 0 0 1 4 4z" fill="#ebbf00"/><path d="m38 21a3.995 3.995 0 0 1 -4 4h-4a4 4 0 0 0 0-8h4a4 4 0 0 1 4 4z" fill="#ebbf00"/><path d="m61 55v6h-8v-5l2.75-2.75z" fill="#006df0"/><path d="m58 44v1l-1-.33-2-.67-3 1-1-1-2 .67-1 .33v-1a5 5 0 1 1 10 0z" fill="#ffd422"/><path d="m57 44.67v2.33a3.994 3.994 0 0 1 -6 3.46 4.225 4.225 0 0 1 -.83-.63 4.025 4.025 0 0 1 -1.17-2.83v-2.33l2-.67 1 1 3-1z" fill="#ffc477"/><path d="m55.75 53.25-2.75 2.75-2.75-2.75.75-.25v-2.54a3.974 3.974 0 0 0 4 0v2.54z" fill="#ffc477"/><path d="m53 56v5h-8v-6l5.25-1.75z" fill="#006df0"/><path d="m40 55v6h-8v-5l2.75-2.75z" fill="#b2fa09"/><path d="m37 44v1l-1-.33-2-.67-3 1-1-1-2 .67-1 .33v-1a5 5 0 1 1 10 0z" fill="#ffd422"/><path d="m36 44.67v2.33a3.994 3.994 0 0 1 -6 3.46 4.225 4.225 0 0 1 -.83-.63 4.025 4.025 0 0 1 -1.17-2.83v-2.33l2-.67 1 1 3-1z" fill="#ffc477"/><path d="m34.75 53.25-2.75 2.75-2.75-2.75.75-.25v-2.54a3.974 3.974 0 0 0 4 0v2.54z" fill="#ffc477"/><path d="m32 56v5h-8v-6l5.25-1.75z" fill="#b2fa09"/><path d="m19 55v6h-8v-5l2.75-2.75z" fill="#ff3051"/><path d="m19 55v6h-3v-6l-3-1 .75-.75z" fill="#cd2a00"/><path d="m40 55v6h-3v-6l-3-1 .75-.75z" fill="#91cc04"/><path d="m61 55v6h-3v-6l-3-1 .75-.75z" fill="#004fac"/><path d="m16 44v1l-1-.33-2-.67-3 1-1-1-2 .67-1 .33v-1a5 5 0 1 1 10 0z" fill="#ffd422"/><path d="m15 44.67v2.33a3.994 3.994 0 0 1 -6 3.46 4.225 4.225 0 0 1 -.83-.63 4.025 4.025 0 0 1 -1.17-2.83v-2.33l2-.67 1 1 3-1z" fill="#ffc477"/><path d="m13.75 53.25-2.75 2.75-2.75-2.75.75-.25v-2.54a3.974 3.974 0 0 0 4 0v2.54z" fill="#ffc477"/><path d="m11 56v5h-8v-6l5.25-1.75z" fill="#ff3051"/><path d="m15 44.67v2.33a4.01 4.01 0 0 1 -4 4 4.089 4.089 0 0 1 -1-.13 3.827 3.827 0 0 0 1-.41 3.98 3.98 0 0 0 2-3.46v-2.33l-1-.34 1-.33z" fill="#ffa733"/><path d="m16 44v1l-2-.66v-.34a4.985 4.985 0 0 0 -3.99-4.9 4.619 4.619 0 0 1 .99-.1 4.985 4.985 0 0 1 5 5z" fill="#ebbf00"/><path d="m36 44.67v2.33a4.01 4.01 0 0 1 -4 4 4.089 4.089 0 0 1 -1-.13 3.827 3.827 0 0 0 1-.41 3.98 3.98 0 0 0 2-3.46v-2.33l-1-.34 1-.33z" fill="#ffa733"/><path d="m37 44v1l-2-.66v-.34a4.985 4.985 0 0 0 -3.99-4.9 4.619 4.619 0 0 1 .99-.1 4.985 4.985 0 0 1 5 5z" fill="#ebbf00"/><path d="m57 44.67v2.33a4.01 4.01 0 0 1 -4 4 4.089 4.089 0 0 1 -1-.13 3.827 3.827 0 0 0 1-.41 3.98 3.98 0 0 0 2-3.46v-2.33l-1-.34 1-.33z" fill="#ffa733"/><path d="m58 44v1l-2-.66v-.34a4.985 4.985 0 0 0 -3.99-4.9 4.619 4.619 0 0 1 .99-.1 4.985 4.985 0 0 1 5 5z" fill="#ebbf00"/><path d="m32 2a15 15 0 1 0 15 15 15.018 15.018 0 0 0 -15-15zm0 28a13 13 0 1 1 13-13 13.012 13.012 0 0 1 -13 13z"/><path d="m19.32 54.05-5.32-1.77v-1.31a4.952 4.952 0 0 0 2-3.97v-1.01a.929.929 0 0 0 .58-.18.983.983 0 0 0 .42-.81v-1a6 6 0 0 0 -12 0v1a.983.983 0 0 0 .42.81.929.929 0 0 0 .58.18v1.01a5.013 5.013 0 0 0 1.47 3.54 4.332 4.332 0 0 0 .53.43v1.31l-5.32 1.77a1.014 1.014 0 0 0 -.68.95v6a1 1 0 0 0 1 1h16a1 1 0 0 0 1-1v-6a1.014 1.014 0 0 0 -.68-.95zm-5.32-7.05a3 3 0 1 1 -6 0v-1.61l.73-.25.56.57a1.007 1.007 0 0 0 .71.29 1.185 1.185 0 0 0 .32-.05l2.68-.9 1 .34zm-6.98-3.39a4 4 0 0 1 7.96 0l-1.66-.56a1 1 0 0 0 -.64 0l-2.41.81-.56-.57a1.007 1.007 0 0 0 -.71-.29 1.185 1.185 0 0 0 -.32.05zm2.98 16.39h-6v-4.28l3.98-1.33 2.02 2.02zm-.13-6.54a.91.91 0 0 0 .13-.46v-1.1a5.558 5.558 0 0 0 1 .1 5.468 5.468 0 0 0 1-.1v1.1a.91.91 0 0 0 .13.46l-1.13 1.13zm8.13 6.54h-6v-3.59l2.02-2.02 3.98 1.33z"/><path d="m40.32 54.05-5.32-1.77v-1.31a4.952 4.952 0 0 0 2-3.97v-1.01a.929.929 0 0 0 .58-.18.983.983 0 0 0 .42-.81v-1a6 6 0 0 0 -12 0v1a.983.983 0 0 0 .42.81.929.929 0 0 0 .58.18v1.01a5.013 5.013 0 0 0 1.47 3.54 4.332 4.332 0 0 0 .53.43v1.31l-5.32 1.77a1.014 1.014 0 0 0 -.68.95v6a1 1 0 0 0 1 1h16a1 1 0 0 0 1-1v-6a1.014 1.014 0 0 0 -.68-.95zm-5.32-7.05a3 3 0 1 1 -6 0v-1.61l.73-.25.56.57a1.007 1.007 0 0 0 .71.29 1.185 1.185 0 0 0 .32-.05l2.68-.9 1 .34zm-6.98-3.39a4 4 0 0 1 7.96 0l-1.66-.56a1 1 0 0 0 -.64 0l-2.41.81-.56-.57a1.007 1.007 0 0 0 -.71-.29 1.185 1.185 0 0 0 -.32.05zm2.98 16.39h-6v-4.28l3.98-1.33 2.02 2.02zm-.13-6.54a.91.91 0 0 0 .13-.46v-1.1a5.558 5.558 0 0 0 1 .1 5.468 5.468 0 0 0 1-.1v1.1a.91.91 0 0 0 .13.46l-1.13 1.13zm8.13 6.54h-6v-3.59l2.02-2.02 3.98 1.33z"/><path d="m61.32 54.05-5.32-1.77v-1.31a4.952 4.952 0 0 0 2-3.97v-1.01a.929.929 0 0 0 .58-.18.983.983 0 0 0 .42-.81v-1a6 6 0 0 0 -12 0v1a.983.983 0 0 0 .42.81.929.929 0 0 0 .58.18v1.01a5.013 5.013 0 0 0 1.47 3.54 4.332 4.332 0 0 0 .53.43v1.31l-5.32 1.77a1.014 1.014 0 0 0 -.68.95v6a1 1 0 0 0 1 1h16a1 1 0 0 0 1-1v-6a1.014 1.014 0 0 0 -.68-.95zm-5.32-7.05a3 3 0 1 1 -6 0v-1.61l.73-.25.56.57a1.007 1.007 0 0 0 .71.29 1.185 1.185 0 0 0 .32-.05l2.68-.9 1 .34zm-6.98-3.39a4 4 0 0 1 7.96 0l-1.66-.56a1 1 0 0 0 -.64 0l-2.41.81-.56-.57a1.007 1.007 0 0 0 -.71-.29 1.185 1.185 0 0 0 -.32.05zm2.98 16.39h-6v-4.28l3.98-1.33 2.02 2.02zm-.13-6.54a.91.91 0 0 0 .13-.46v-1.1a5.558 5.558 0 0 0 1 .1 5.468 5.468 0 0 0 1-.1v1.1a.91.91 0 0 0 .13.46l-1.13 1.13zm8.13 6.54h-6v-3.59l2.02-2.02 3.98 1.33z"/><path d="m36.97 17a4.984 4.984 0 0 0 -1.97-8.9v-2.1h-2v2h-2v-2h-2v2h-4v2h2v14h-2v2h4v2h2v-2h2v2h2v-2.1a4.984 4.984 0 0 0 1.97-8.9zm-7.97-7h5a3 3 0 0 1 0 6h-5zm5 14h-5v-6h5a3 3 0 0 1 0 6z"/><path d="m12 18h2v-2h-3a1 1 0 0 0 -1 1v3h2z"/><path d="m10 22h2v2h-2z"/><path d="m10 26h2v2h-2z"/><path d="m10 30h2v2h-2z"/><path d="m10 34h2v2h-2z"/><path d="m52 20h2v-3a1 1 0 0 0 -1-1h-3v2h2z"/><path d="m52 22h2v2h-2z"/><path d="m52 26h2v2h-2z"/><path d="m52 30h2v2h-2z"/><path d="m52 34h2v2h-2z"/><path d="m31 34h2v2h-2z"/></g></svg>