<svg id="Layer_35" enable-background="new 0 0 64 64" height="512" viewBox="0 0 64 64" width="512" xmlns="http://www.w3.org/2000/svg"><path d="m57 12h-8.53c-1.1 1.23-2.7 2-4.47 2h-8c-1.77 0-3.37-.77-4.46-2h-9.54v26c0 3.87-3.13 7-7 7 .41 0 .81.02 1.21.06 2.54.23 4.87 1.2 6.77 2.68 2.03 1.58 3.58 3.75 4.39 6.26h29.63c.55 0 1-.45 1-1v-40c0-.55-.45-1-1-1z" fill="#e6e9ed"/><path d="m38 24v8h-12v-12h12z" fill="#b4dd7f"/><path d="m46 36h6v16h-6z" fill="#b4dd7f"/><path d="m40 36h6v16h-6z" fill="#fcd770"/><path d="m52 54v2c0 .7-.12 1.37-.34 2-.3.85-.79 1.61-1.42 2.24-1.08 1.09-2.58 1.76-4.24 1.76-2.61 0-4.84-1.67-5.66-4-.22-.63-.34-1.3-.34-2v-2-2h6 6z" fill="#aab2bd"/><path d="m46 28 6 8h-6-6z" fill="#aab2bd"/><g fill="#ffeaa7"><path d="m40 56c0 .7.12 1.37.34 2h-12.34c0-1.39-.22-2.74-.63-4h12.63z"/><path d="m22 38c0-2.8-1.63-5.2-4-6.32v-19.68c0-2.21 1.79-4 4-4h8c0 1.54.58 2.94 1.54 4h-9.54z"/><path d="m62 12v42c0 2.21-1.79 4-4 4h-6.34c.22-.63.34-1.3.34-2v-2h5c.55 0 1-.45 1-1v-40c0-.55-.45-1-1-1h-8.53c.95-1.06 1.53-2.46 1.53-4h8c2.21 0 4 1.79 4 4z"/></g><path d="m44 6h6v2c0 1.54-.58 2.94-1.53 4-1.1 1.23-2.7 2-4.47 2h-8c-1.77 0-3.37-.77-4.46-2-.96-1.06-1.54-2.46-1.54-4v-2h6c0-1.1.45-2.1 1.17-2.83.73-.72 1.73-1.17 2.83-1.17 2.21 0 4 1.79 4 4z" fill="#cf9e76"/><path d="m7.03 47.75c1.22 1.4 1.97 3.24 1.97 5.25v9h-7v-4c0-3.59 1.46-6.84 3.81-9.19.38-.38.78-.74 1.21-1.07z" fill="#fc6e51"/><path d="m22.98 47.74c2.03 1.58 3.58 3.75 4.39 6.26.41 1.26.63 2.61.63 4v4h-7v-9c0-2.01.75-3.85 1.97-5.25z" fill="#fc6e51"/><path d="m22.98 47.74-.01.01c-1.22 1.4-1.97 3.24-1.97 5.25v9h-12v-9c0-2.01-.75-3.85-1.97-5.25l-.01-.01c1.9-1.48 4.23-2.45 6.77-2.68l-.79 7.94 2 2 2-2-.79-7.94c2.54.23 4.87 1.2 6.77 2.68z" fill="#ff826e"/><path d="m16.21 45.06.79 7.94-2 2-2-2 .79-7.94c.4-.04.8-.06 1.21-.06s.81.02 1.21.06z" fill="#ffeaa7"/><path d="m18 31.68c2.37 1.12 4 3.52 4 6.32 0 3.87-3.13 7-7 7s-7-3.13-7-7 3.13-7 7-7c1.08 0 2.09.24 3 .68z" fill="#f0d0b4"/><path d="m58 7h-7v-2h-6.101c-.464-2.279-2.484-4-4.899-4s-4.435 1.721-4.899 4h-6.101v2h-7c-2.757 0-5 2.243-5 5v18.263c-.641-.166-1.308-.263-2-.263-4.411 0-8 3.589-8 8 0 2.805 1.455 5.274 3.646 6.702-5.593 1.836-9.646 7.099-9.646 13.298v5h28v-4h10.685c1.126 2.361 3.53 4 6.315 4s5.188-1.639 6.315-4h5.685c2.757 0 5-2.243 5-5v-42c0-2.757-2.243-5-5-5zm-16 28 4-5.333 4 5.333zm-1 2h4v14h-4zm6 0h4v14h-4zm-1-10.667-7 9.334v17.333h-10.939c-1.503-3.913-4.705-6.984-8.707-8.298 2.191-1.428 3.646-3.897 3.646-6.702v-25h8.111c1.263 1.235 2.988 2 4.889 2h8c1.902 0 3.626-.765 4.889-2h8.111v40h-4v-17.333zm-26 34.667h-10v-8c0-1.803-.552-3.553-1.559-5.037 1.266-.83 2.695-1.429 4.231-1.732l-.714 7.141 3.042 3.042 3.042-3.042-.714-7.141c1.536.303 2.965.902 4.231 1.732-1.007 1.484-1.559 3.234-1.559 5.037zm-5-15c.1 0 .197.013.296.015l.662 6.613-.958.958-.958-.958.662-6.613c.099-.002.196-.015.296-.015zm16-39h6v-1c0-1.654 1.346-3 3-3s3 1.346 3 3v1h6v1c0 2.757-2.243 5-5 5h-8c-2.757 0-5-2.243-5-5zm-12 5c0-1.654 1.346-3 3-3h7.08c.102.706.308 1.378.605 2h-8.685v21.726c-.572-.65-1.247-1.206-2-1.644zm-10 26c0-3.309 2.691-6 6-6s6 2.691 6 6-2.691 6-6 6-6-2.691-6-6zm-6 20c0-3.477 1.495-6.603 3.866-8.797.733 1.128 1.134 2.444 1.134 3.797v8h-5zm24 3h-5v-8c0-1.353.401-2.669 1.134-3.797 2.371 2.194 3.866 5.32 3.866 8.797zm1.949-4c-.048-.681-.138-1.349-.281-2h10.332v1c0 .34.033.672.08 1zm17.051 4c-2.757 0-5-2.243-5-5v-3h10v3c0 2.757-2.243 5-5 5zm15-7c0 1.654-1.346 3-3 3h-5.08c.047-.328.08-.66.08-1v-1h4c1.103 0 2-.897 2-2v-40c0-1.103-.897-2-2-2h-6.685c.297-.622.503-1.294.605-2h7.08c1.654 0 3 1.346 3 3z"/><path d="m39 9h2v2h-2z"/><path d="m35 9h2v2h-2z"/><path d="m43 9h2v2h-2z"/><path d="m44.293 16.293-5.293 5.293v-2.586h-14v14h14v-8.586l6.707-6.707zm-7.293 14.707h-10v-10h10v2.586l-4 4-3.293-3.293-1.414 1.414 4.707 4.707 4-4z"/><path d="m25 35h12v2h-12z"/><path d="m25 39h12v2h-12z"/><path d="m25 43h2v2h-2z"/><path d="m29 43h2v2h-2z"/><path d="m33 43h2v2h-2z"/><path d="m53 15h2v2h-2z"/><path d="m49 15h2v2h-2z"/><path d="m47 19h8v2h-8z"/><path d="m47 23h8v2h-8z"/></svg>