<svg id="File_management" height="512" viewBox="0 0 64 64" width="512" xmlns="http://www.w3.org/2000/svg" data-name="File management"><path d="m61 36h-32v-33h23l9 9z" fill="#ffe027"/><path d="m61 12h-9v-9z" fill="#ffcd25"/><path d="m35 62h-32v-33h23l9 9z" fill="#ffe027"/><path d="m35 38h-9v-9z" fill="#ffcd25"/><path d="m17 6 8 7-8 7v-4h-5v7h-6v-13h11z" fill="#16bb87"/><path d="m47 59-8-7 8-7v4h5v-7h6v13h-11z" fill="#16bb87"/><path d="m61.71 11.29-9-9a1.033 1.033 0 0 0 -.71-.29h-23a1 1 0 0 0 -1 1v26.59l-1.29-1.3a1.033 1.033 0 0 0 -.71-.29h-23a1 1 0 0 0 -1 1v33a1 1 0 0 0 1 1h32a1 1 0 0 0 1-1v-24a1.033 1.033 0 0 0 -.29-.71l-.3-.29h25.59a1 1 0 0 0 1-1v-24a1.033 1.033 0 0 0 -.29-.71zm-8.71-5.88 5.59 5.59h-5.59zm-26 26 5.59 5.59h-5.59zm7 29.59h-30v-31h21v8a1 1 0 0 0 1 1h8zm26-26h-26.59l-3.41-3.41v-27.59h21v8a1 1 0 0 0 1 1h8z"/><path d="m32 6h2v2h-2z"/><path d="m36 6h13v2h-13z"/><path d="m32 10h17v2h-17z"/><path d="m32 14h5v2h-5z"/><path d="m39 14h10v2h-10z"/><path d="m32 18h26v2h-26z"/><path d="m6 32h2v2h-2z"/><path d="m10 32h13v2h-13z"/><path d="m6 36h17v2h-17z"/><path d="m6 40h5v2h-5z"/><path d="m13 40h10v2h-10z"/><path d="m6 44h26v2h-26z"/><path d="m6 24h6a1 1 0 0 0 1-1v-6h3v3a1 1 0 0 0 1.659.753l8-7a1 1 0 0 0 0-1.506l-8-7a1 1 0 0 0 -1.659.753v3h-10a1 1 0 0 0 -1 1v13a1 1 0 0 0 1 1zm1-13h10a1 1 0 0 0 1-1v-1.8l5.481 4.8-5.481 4.8v-1.8a1 1 0 0 0 -1-1h-5a1 1 0 0 0 -1 1v6h-4z"/><path d="m58 41h-6a1 1 0 0 0 -1 1v6h-3v-3a1 1 0 0 0 -1.658-.753l-8 7a1 1 0 0 0 0 1.506l8 7a1 1 0 0 0 .658.247.983.983 0 0 0 .413-.09 1 1 0 0 0 .587-.91v-3h10a1 1 0 0 0 1-1v-13a1 1 0 0 0 -1-1zm-1 13h-10a1 1 0 0 0 -1 1v1.8l-5.481-4.8 5.481-4.8v1.8a1 1 0 0 0 1 1h5a1 1 0 0 0 1-1v-6h4z"/></svg>
